<mxfile host="app.diagrams.net" agent="Mozilla/5.0 (Windows NT 10.0; Win64; x64) AppleWebKit/537.36 (KHTML, like Gecko) Chrome/131.0.0.0 Safari/537.36 Edg/131.0.0.0" version="26.0.6">
  <diagram name="Seite-1" id="kGQ0F80vTl58nIOhBpZF">
    <mxGraphModel dx="1683" dy="444" grid="1" gridSize="10" guides="1" tooltips="1" connect="1" arrows="1" fold="1" page="1" pageScale="1" pageWidth="827" pageHeight="1169" math="0" shadow="0">
      <root>
        <mxCell id="0" />
        <mxCell id="1" parent="0" />
        <UserObject label="&lt;div style=&quot;font-family: &amp;quot;Cascadia Code&amp;quot;, Consolas, &amp;quot;Courier New&amp;quot;, monospace; line-height: 19px; white-space: pre;&quot;&gt;&lt;div style=&quot;background-color: light-dark(rgb(255, 255, 255), rgb(18, 18, 18)); color: light-dark(rgb(59, 59, 59), rgb(186, 186, 186)); font-weight: normal;&quot;&gt;&lt;font style=&quot;font-size: 16px;&quot;&gt;&lt;span style=&quot;color: rgb(163, 21, 21);&quot;&gt;&quot;use client&quot;&lt;/span&gt;&lt;span style=&quot;color: rgb(59, 59, 59);&quot;&gt;;&lt;/span&gt;&lt;/font&gt;&lt;/div&gt;&lt;div style=&quot;background-color: light-dark(rgb(255, 255, 255), rgb(18, 18, 18)); color: light-dark(rgb(59, 59, 59), rgb(186, 186, 186)); font-weight: normal;&quot;&gt;&lt;span style=&quot;background-color: light-dark(rgb(255, 255, 255), rgb(18, 18, 18)); color: rgb(0, 0, 255);&quot;&gt;&lt;font style=&quot;font-size: 16px;&quot;&gt;&lt;br&gt;&lt;/font&gt;&lt;/span&gt;&lt;/div&gt;&lt;div style=&quot;background-color: light-dark(rgb(255, 255, 255), rgb(18, 18, 18)); color: light-dark(rgb(59, 59, 59), rgb(186, 186, 186)); font-weight: normal;&quot;&gt;&lt;font style=&quot;font-size: 16px;&quot;&gt;&lt;span style=&quot;background-color: light-dark(rgb(255, 255, 255), rgb(18, 18, 18)); color: rgb(0, 0, 255);&quot;&gt;function&lt;/span&gt;&lt;span style=&quot;background-color: light-dark(rgb(255, 255, 255), rgb(18, 18, 18)); color: rgb(59, 59, 59);&quot;&gt; &lt;/span&gt;&lt;span style=&quot;background-color: light-dark(rgb(255, 255, 255), rgb(18, 18, 18)); color: rgb(121, 94, 38);&quot;&gt;editDeleteReducer&lt;/span&gt;&lt;span style=&quot;background-color: light-dark(rgb(255, 255, 255), rgb(18, 18, 18)); color: rgb(59, 59, 59);&quot;&gt;(&lt;/span&gt;&lt;/font&gt;&lt;/div&gt;&lt;div style=&quot;background-color: light-dark(rgb(255, 255, 255), rgb(18, 18, 18)); color: light-dark(rgb(59, 59, 59), rgb(186, 186, 186)); font-weight: normal;&quot;&gt;&lt;font style=&quot;font-size: 16px;&quot;&gt;&lt;span style=&quot;color: rgb(59, 59, 59);&quot;&gt;&amp;nbsp; &lt;/span&gt;&lt;span style=&quot;color: rgb(0, 16, 128);&quot;&gt;state&lt;/span&gt;&lt;span style=&quot;color: rgb(0, 0, 0);&quot;&gt;:&lt;/span&gt;&lt;span style=&quot;color: rgb(59, 59, 59);&quot;&gt; &lt;/span&gt;&lt;span style=&quot;color: rgb(38, 127, 153);&quot;&gt;EditDeleteState&lt;/span&gt;&lt;span style=&quot;color: rgb(59, 59, 59);&quot;&gt;,&lt;/span&gt;&lt;/font&gt;&lt;/div&gt;&lt;div style=&quot;background-color: light-dark(rgb(255, 255, 255), rgb(18, 18, 18)); color: light-dark(rgb(59, 59, 59), rgb(186, 186, 186)); font-weight: normal;&quot;&gt;&lt;font style=&quot;font-size: 16px;&quot;&gt;&lt;span style=&quot;color: rgb(59, 59, 59);&quot;&gt;&amp;nbsp; &lt;/span&gt;&lt;span style=&quot;color: rgb(0, 16, 128);&quot;&gt;action&lt;/span&gt;&lt;span style=&quot;color: rgb(0, 0, 0);&quot;&gt;:&lt;/span&gt;&lt;span style=&quot;color: rgb(59, 59, 59);&quot;&gt; &lt;/span&gt;&lt;span style=&quot;color: rgb(38, 127, 153);&quot;&gt;EditDeleteReducerAction&lt;/span&gt;&lt;span style=&quot;color: rgb(59, 59, 59);&quot;&gt;)&lt;/span&gt;&lt;span style=&quot;color: rgb(0, 0, 0);&quot;&gt;:&lt;/span&gt;&lt;span style=&quot;color: rgb(59, 59, 59);&quot;&gt; &lt;/span&gt;&lt;span style=&quot;color: rgb(38, 127, 153);&quot;&gt;EditDeleteState&lt;/span&gt;&lt;span style=&quot;color: rgb(59, 59, 59);&quot;&gt; {&lt;/span&gt;&lt;/font&gt;&lt;/div&gt;&lt;div style=&quot;background-color: light-dark(rgb(255, 255, 255), rgb(18, 18, 18)); color: light-dark(rgb(59, 59, 59), rgb(186, 186, 186)); font-weight: normal;&quot;&gt;&lt;font style=&quot;font-size: 16px;&quot;&gt;&lt;span style=&quot;color: rgb(59, 59, 59);&quot;&gt;&amp;nbsp; &lt;/span&gt;&lt;span style=&quot;color: rgb(175, 0, 219);&quot;&gt;switch&lt;/span&gt;&lt;span style=&quot;color: rgb(59, 59, 59);&quot;&gt; (&lt;/span&gt;&lt;span style=&quot;color: rgb(0, 16, 128);&quot;&gt;action&lt;/span&gt;&lt;span style=&quot;color: rgb(59, 59, 59);&quot;&gt;.&lt;/span&gt;&lt;span style=&quot;color: rgb(0, 16, 128);&quot;&gt;type&lt;/span&gt;&lt;span style=&quot;color: rgb(59, 59, 59);&quot;&gt;) {&lt;/span&gt;&lt;/font&gt;&lt;/div&gt;&lt;div style=&quot;background-color: light-dark(rgb(255, 255, 255), rgb(18, 18, 18)); color: light-dark(rgb(59, 59, 59), rgb(186, 186, 186)); font-weight: normal;&quot;&gt;&lt;font style=&quot;font-size: 16px;&quot;&gt;&lt;span style=&quot;color: rgb(59, 59, 59);&quot;&gt;&amp;nbsp; &amp;nbsp; &lt;/span&gt;&lt;span style=&quot;color: rgb(175, 0, 219);&quot;&gt;case&lt;/span&gt;&lt;span style=&quot;color: rgb(59, 59, 59);&quot;&gt; &lt;/span&gt;&lt;span style=&quot;color: rgb(163, 21, 21);&quot;&gt;&quot;edit&quot;&lt;/span&gt;&lt;span style=&quot;color: rgb(59, 59, 59);&quot;&gt;:&lt;/span&gt;&lt;/font&gt;&lt;/div&gt;&lt;div style=&quot;background-color: light-dark(rgb(255, 255, 255), rgb(18, 18, 18)); color: light-dark(rgb(59, 59, 59), rgb(186, 186, 186)); font-weight: normal;&quot;&gt;&lt;font style=&quot;font-size: 16px;&quot;&gt;&lt;span style=&quot;color: rgb(59, 59, 59);&quot;&gt;&amp;nbsp; &amp;nbsp; &amp;nbsp; &lt;/span&gt;&lt;span style=&quot;color: rgb(175, 0, 219);&quot;&gt;return&lt;/span&gt;&lt;span style=&quot;color: rgb(59, 59, 59);&quot;&gt; { &lt;/span&gt;&lt;span style=&quot;color: rgb(0, 16, 128);&quot;&gt;category&lt;/span&gt;&lt;span style=&quot;color: rgb(0, 16, 128);&quot;&gt;:&lt;/span&gt;&lt;span style=&quot;color: rgb(59, 59, 59);&quot;&gt; &lt;/span&gt;&lt;span style=&quot;color: rgb(0, 16, 128);&quot;&gt;action&lt;/span&gt;&lt;span style=&quot;color: rgb(59, 59, 59);&quot;&gt;.&lt;/span&gt;&lt;span style=&quot;color: rgb(0, 16, 128);&quot;&gt;category&lt;/span&gt;&lt;span style=&quot;color: rgb(59, 59, 59);&quot;&gt;, &lt;/span&gt;&lt;span style=&quot;color: rgb(0, 16, 128);&quot;&gt;actionType&lt;/span&gt;&lt;span style=&quot;color: rgb(0, 16, 128);&quot;&gt;:&lt;/span&gt;&lt;span style=&quot;color: rgb(59, 59, 59);&quot;&gt; &lt;/span&gt;&lt;span style=&quot;color: rgb(163, 21, 21);&quot;&gt;&quot;edit&quot;&lt;/span&gt;&lt;span style=&quot;color: rgb(59, 59, 59);&quot;&gt; };&lt;/span&gt;&lt;/font&gt;&lt;/div&gt;&lt;div style=&quot;background-color: light-dark(rgb(255, 255, 255), rgb(18, 18, 18)); color: light-dark(rgb(59, 59, 59), rgb(186, 186, 186)); font-weight: normal;&quot;&gt;&lt;font style=&quot;font-size: 16px;&quot;&gt;&lt;span style=&quot;color: rgb(59, 59, 59);&quot;&gt;&amp;nbsp; &amp;nbsp; &lt;/span&gt;&lt;span style=&quot;color: rgb(175, 0, 219);&quot;&gt;case&lt;/span&gt;&lt;span style=&quot;color: rgb(59, 59, 59);&quot;&gt; &lt;/span&gt;&lt;span style=&quot;color: rgb(163, 21, 21);&quot;&gt;&quot;delete&quot;&lt;/span&gt;&lt;span style=&quot;color: rgb(59, 59, 59);&quot;&gt;:&lt;/span&gt;&lt;/font&gt;&lt;/div&gt;&lt;div style=&quot;background-color: light-dark(rgb(255, 255, 255), rgb(18, 18, 18)); color: light-dark(rgb(59, 59, 59), rgb(186, 186, 186)); font-weight: normal;&quot;&gt;&lt;font style=&quot;font-size: 16px;&quot;&gt;&lt;span style=&quot;color: rgb(59, 59, 59);&quot;&gt;&amp;nbsp; &amp;nbsp; &amp;nbsp; &lt;/span&gt;&lt;span style=&quot;color: rgb(175, 0, 219);&quot;&gt;return&lt;/span&gt;&lt;span style=&quot;color: rgb(59, 59, 59);&quot;&gt; { &lt;/span&gt;&lt;span style=&quot;color: rgb(0, 16, 128);&quot;&gt;category&lt;/span&gt;&lt;span style=&quot;color: rgb(0, 16, 128);&quot;&gt;:&lt;/span&gt;&lt;span style=&quot;color: rgb(59, 59, 59);&quot;&gt; &lt;/span&gt;&lt;span style=&quot;color: rgb(0, 16, 128);&quot;&gt;action&lt;/span&gt;&lt;span style=&quot;color: rgb(59, 59, 59);&quot;&gt;.&lt;/span&gt;&lt;span style=&quot;color: rgb(0, 16, 128);&quot;&gt;category&lt;/span&gt;&lt;span style=&quot;color: rgb(59, 59, 59);&quot;&gt;, &lt;/span&gt;&lt;span style=&quot;color: rgb(0, 16, 128);&quot;&gt;actionType&lt;/span&gt;&lt;span style=&quot;color: rgb(0, 16, 128);&quot;&gt;:&lt;/span&gt;&lt;span style=&quot;color: rgb(59, 59, 59);&quot;&gt; &lt;/span&gt;&lt;span style=&quot;color: rgb(163, 21, 21);&quot;&gt;&quot;delete&quot;&lt;/span&gt;&lt;span style=&quot;color: rgb(59, 59, 59);&quot;&gt; };&lt;/span&gt;&lt;/font&gt;&lt;/div&gt;&lt;div style=&quot;background-color: light-dark(rgb(255, 255, 255), rgb(18, 18, 18)); color: light-dark(rgb(59, 59, 59), rgb(186, 186, 186)); font-weight: normal;&quot;&gt;&lt;font style=&quot;font-size: 16px;&quot;&gt;&lt;span style=&quot;color: rgb(59, 59, 59);&quot;&gt;&amp;nbsp; &amp;nbsp; &lt;/span&gt;&lt;span style=&quot;color: rgb(175, 0, 219);&quot;&gt;default&lt;/span&gt;&lt;span style=&quot;color: rgb(59, 59, 59);&quot;&gt;:&lt;/span&gt;&lt;/font&gt;&lt;/div&gt;&lt;div style=&quot;background-color: light-dark(rgb(255, 255, 255), rgb(18, 18, 18)); color: light-dark(rgb(59, 59, 59), rgb(186, 186, 186)); font-weight: normal;&quot;&gt;&lt;font style=&quot;font-size: 16px;&quot;&gt;&lt;span style=&quot;color: rgb(59, 59, 59);&quot;&gt;&amp;nbsp; &amp;nbsp; &amp;nbsp; &lt;/span&gt;&lt;span style=&quot;color: rgb(175, 0, 219);&quot;&gt;return&lt;/span&gt;&lt;span style=&quot;color: rgb(59, 59, 59);&quot;&gt; { &lt;/span&gt;&lt;span style=&quot;color: rgb(0, 16, 128);&quot;&gt;category&lt;/span&gt;&lt;span style=&quot;color: rgb(0, 16, 128);&quot;&gt;:&lt;/span&gt;&lt;span style=&quot;color: rgb(59, 59, 59);&quot;&gt; &lt;/span&gt;&lt;span style=&quot;color: rgb(0, 0, 255);&quot;&gt;null&lt;/span&gt;&lt;span style=&quot;color: rgb(59, 59, 59);&quot;&gt;, &lt;/span&gt;&lt;span style=&quot;color: rgb(0, 16, 128);&quot;&gt;actionType&lt;/span&gt;&lt;span style=&quot;color: rgb(0, 16, 128);&quot;&gt;:&lt;/span&gt;&lt;span style=&quot;color: rgb(59, 59, 59);&quot;&gt; &lt;/span&gt;&lt;span style=&quot;color: rgb(0, 0, 255);&quot;&gt;null&lt;/span&gt;&lt;span style=&quot;color: rgb(59, 59, 59);&quot;&gt; };&lt;/span&gt;&lt;/font&gt;&lt;/div&gt;&lt;div style=&quot;background-color: light-dark(rgb(255, 255, 255), rgb(18, 18, 18)); color: light-dark(rgb(59, 59, 59), rgb(186, 186, 186)); font-weight: normal;&quot;&gt;&lt;span style=&quot;color: rgb(59, 59, 59);&quot;&gt;&lt;font style=&quot;font-size: 16px;&quot;&gt;&amp;nbsp; }&lt;/font&gt;&lt;/span&gt;&lt;/div&gt;&lt;div style=&quot;background-color: light-dark(rgb(255, 255, 255), rgb(18, 18, 18)); color: light-dark(rgb(59, 59, 59), rgb(186, 186, 186)); font-weight: normal;&quot;&gt;&lt;span style=&quot;color: rgb(59, 59, 59);&quot;&gt;&lt;font style=&quot;font-size: 16px;&quot;&gt;}&lt;/font&gt;&lt;/span&gt;&lt;/div&gt;&lt;div style=&quot;background-color: light-dark(rgb(255, 255, 255), rgb(18, 18, 18)); color: light-dark(rgb(59, 59, 59), rgb(186, 186, 186)); font-weight: normal;&quot;&gt;&lt;span style=&quot;color: rgb(175, 0, 219);&quot;&gt;&lt;font style=&quot;font-size: 16px;&quot;&gt;&lt;br&gt;&lt;/font&gt;&lt;/span&gt;&lt;/div&gt;&lt;div style=&quot;background-color: light-dark(rgb(255, 255, 255), rgb(18, 18, 18)); color: light-dark(rgb(59, 59, 59), rgb(186, 186, 186)); font-weight: normal;&quot;&gt;&lt;font style=&quot;font-size: 16px;&quot;&gt;&lt;span style=&quot;color: rgb(175, 0, 219);&quot;&gt;export&lt;/span&gt;&lt;span style=&quot;color: rgb(59, 59, 59);&quot;&gt; &lt;/span&gt;&lt;span style=&quot;color: rgb(175, 0, 219);&quot;&gt;default&lt;/span&gt;&lt;span style=&quot;color: rgb(59, 59, 59);&quot;&gt; &lt;/span&gt;&lt;span style=&quot;color: rgb(0, 0, 255);&quot;&gt;function&lt;/span&gt;&lt;span style=&quot;color: rgb(59, 59, 59);&quot;&gt; &lt;/span&gt;&lt;span style=&quot;color: rgb(121, 94, 38);&quot;&gt;CategoryList&lt;/span&gt;&lt;span style=&quot;color: rgb(59, 59, 59);&quot;&gt;({ &lt;/span&gt;&lt;span style=&quot;color: rgb(0, 16, 128);&quot;&gt;categories&lt;/span&gt;&lt;span style=&quot;color: rgb(59, 59, 59);&quot;&gt; }&lt;/span&gt;&lt;span style=&quot;color: rgb(0, 0, 0);&quot;&gt;:&lt;/span&gt;&lt;span style=&quot;color: rgb(59, 59, 59);&quot;&gt; { &lt;/span&gt;&lt;span style=&quot;color: rgb(0, 16, 128);&quot;&gt;categories&lt;/span&gt;&lt;span style=&quot;color: rgb(0, 0, 0);&quot;&gt;:&lt;/span&gt;&lt;span style=&quot;color: rgb(59, 59, 59);&quot;&gt; &lt;/span&gt;&lt;span style=&quot;color: rgb(38, 127, 153);&quot;&gt;Category&lt;/span&gt;&lt;span style=&quot;color: rgb(59, 59, 59);&quot;&gt;[] }) {&lt;/span&gt;&lt;/font&gt;&lt;/div&gt;&lt;div style=&quot;&quot;&gt;&lt;font style=&quot;&quot;&gt;&lt;span style=&quot;background-color: light-dark(rgb(255, 255, 255), rgb(18, 18, 18)); color: rgb(59, 59, 59); font-size: 16px; font-weight: normal;&quot;&gt;&amp;nbsp; &lt;/span&gt;&lt;span style=&quot;background-color: light-dark(rgb(255, 255, 255), rgb(18, 18, 18)); color: rgb(0, 0, 255); font-size: 16px; font-weight: normal;&quot;&gt;const&lt;/span&gt;&lt;span style=&quot;background-color: light-dark(rgb(255, 255, 255), rgb(18, 18, 18)); color: rgb(59, 59, 59); font-size: 16px; font-weight: normal;&quot;&gt; [&lt;/span&gt;&lt;span style=&quot;background-color: light-dark(rgb(255, 255, 255), rgb(18, 18, 18)); color: rgb(0, 112, 193); font-size: 16px; font-weight: normal;&quot;&gt;selectedCategory&lt;/span&gt;&lt;span style=&quot;background-color: light-dark(rgb(255, 255, 255), rgb(18, 18, 18)); color: rgb(59, 59, 59); font-size: 16px; font-weight: normal;&quot;&gt;, &lt;/span&gt;&lt;span style=&quot;background-color: light-dark(rgb(255, 255, 255), rgb(18, 18, 18)); color: rgb(121, 94, 38); font-size: 16px; font-weight: normal;&quot;&gt;selectedCategoryDispatch&lt;/span&gt;&lt;span style=&quot;background-color: light-dark(rgb(255, 255, 255), rgb(18, 18, 18)); color: rgb(59, 59, 59); font-size: 16px; font-weight: normal;&quot;&gt;] &lt;/span&gt;&lt;span style=&quot;background-color: light-dark(rgb(255, 255, 255), rgb(18, 18, 18)); color: rgb(0, 0, 0); font-size: 16px; font-weight: normal;&quot;&gt;=&lt;/span&gt;&lt;span style=&quot;background-color: light-dark(rgb(255, 255, 255), rgb(18, 18, 18)); color: rgb(59, 59, 59); font-size: 16px; font-weight: normal;&quot;&gt; &lt;/span&gt;&lt;span style=&quot;background-color: light-dark(rgb(255, 255, 0), rgb(18, 18, 18));&quot;&gt;&lt;b style=&quot;&quot;&gt;&lt;font style=&quot;font-size: 22px; color: light-dark(rgb(126, 58, 58), rgb(255, 144, 144));&quot;&gt;useReducer&lt;/font&gt;&lt;/b&gt;&lt;/span&gt;&lt;span style=&quot;background-color: light-dark(rgb(255, 255, 255), rgb(18, 18, 18)); color: rgb(59, 59, 59); font-size: 16px; font-weight: normal;&quot;&gt;(&lt;/span&gt;&lt;span style=&quot;background-color: light-dark(rgb(255, 255, 255), rgb(18, 18, 18)); color: rgb(121, 94, 38); font-size: 16px; font-weight: normal;&quot;&gt;editDeleteReducer&lt;/span&gt;&lt;span style=&quot;background-color: light-dark(rgb(255, 255, 255), rgb(18, 18, 18)); color: rgb(59, 59, 59); font-size: 16px; font-weight: normal;&quot;&gt;, { &lt;/span&gt;&lt;span style=&quot;background-color: light-dark(rgb(255, 255, 255), rgb(18, 18, 18)); color: rgb(0, 16, 128); font-size: 16px; font-weight: normal;&quot;&gt;category&lt;/span&gt;&lt;span style=&quot;background-color: light-dark(rgb(255, 255, 255), rgb(18, 18, 18)); color: rgb(0, 16, 128); font-size: 16px; font-weight: normal;&quot;&gt;:&lt;/span&gt;&lt;span style=&quot;background-color: light-dark(rgb(255, 255, 255), rgb(18, 18, 18)); color: rgb(59, 59, 59); font-size: 16px; font-weight: normal;&quot;&gt; &lt;/span&gt;&lt;span style=&quot;background-color: light-dark(rgb(255, 255, 255), rgb(18, 18, 18)); color: rgb(0, 0, 255); font-size: 16px; font-weight: normal;&quot;&gt;null&lt;/span&gt;&lt;span style=&quot;background-color: light-dark(rgb(255, 255, 255), rgb(18, 18, 18)); color: rgb(59, 59, 59); font-size: 16px; font-weight: normal;&quot;&gt;, &lt;/span&gt;&lt;span style=&quot;background-color: light-dark(rgb(255, 255, 255), rgb(18, 18, 18)); color: rgb(0, 16, 128); font-size: 16px; font-weight: normal;&quot;&gt;actionType&lt;/span&gt;&lt;span style=&quot;background-color: light-dark(rgb(255, 255, 255), rgb(18, 18, 18)); color: rgb(0, 16, 128); font-size: 16px; font-weight: normal;&quot;&gt;:&lt;/span&gt;&lt;span style=&quot;background-color: light-dark(rgb(255, 255, 255), rgb(18, 18, 18)); color: rgb(59, 59, 59); font-size: 16px; font-weight: normal;&quot;&gt; &lt;/span&gt;&lt;span style=&quot;background-color: light-dark(rgb(255, 255, 255), rgb(18, 18, 18)); color: rgb(0, 0, 255); font-size: 16px; font-weight: normal;&quot;&gt;null&lt;/span&gt;&lt;span style=&quot;background-color: light-dark(rgb(255, 255, 255), rgb(18, 18, 18)); color: rgb(59, 59, 59); font-size: 16px; font-weight: normal;&quot;&gt; });&lt;/span&gt;&lt;/font&gt;&lt;/div&gt;&lt;div style=&quot;background-color: light-dark(rgb(255, 255, 255), rgb(18, 18, 18)); color: light-dark(rgb(59, 59, 59), rgb(186, 186, 186)); font-weight: normal;&quot;&gt;&lt;font style=&quot;font-size: 16px;&quot;&gt;&lt;span style=&quot;background-color: light-dark(rgb(255, 255, 255), rgb(18, 18, 18)); color: rgb(59, 59, 59);&quot;&gt;&amp;nbsp; &lt;/span&gt;&lt;span style=&quot;background-color: light-dark(rgb(255, 255, 255), rgb(18, 18, 18)); color: rgb(175, 0, 219);&quot;&gt;return&lt;/span&gt;&lt;span style=&quot;background-color: light-dark(rgb(255, 255, 255), rgb(18, 18, 18)); color: rgb(59, 59, 59);&quot;&gt; (&lt;/span&gt;&lt;/font&gt;&lt;/div&gt;&lt;div style=&quot;background-color: light-dark(rgb(255, 255, 255), rgb(18, 18, 18)); color: light-dark(rgb(59, 59, 59), rgb(186, 186, 186)); font-weight: normal;&quot;&gt;&lt;font style=&quot;font-size: 16px;&quot;&gt;&lt;span style=&quot;color: rgb(59, 59, 59);&quot;&gt;&amp;nbsp; &amp;nbsp; &lt;/span&gt;&lt;span style=&quot;color: rgb(128, 0, 0);&quot;&gt;&amp;lt;&lt;/span&gt;&lt;span style=&quot;color: rgb(128, 0, 0);&quot;&gt;div&lt;/span&gt;&lt;span style=&quot;color: rgb(59, 59, 59);&quot;&gt; &lt;/span&gt;&lt;span style=&quot;color: rgb(229, 0, 0);&quot;&gt;className&lt;/span&gt;&lt;span style=&quot;color: rgb(0, 0, 0);&quot;&gt;=&lt;/span&gt;&lt;span style=&quot;color: rgb(0, 0, 255);&quot;&gt;{&lt;/span&gt;&lt;span style=&quot;color: rgb(0, 112, 193);&quot;&gt;styles&lt;/span&gt;&lt;span style=&quot;color: rgb(0, 0, 0);&quot;&gt;.&lt;/span&gt;&lt;span style=&quot;color: rgb(0, 16, 128);&quot;&gt;categories&lt;/span&gt;&lt;span style=&quot;color: rgb(0, 0, 255);&quot;&gt;}&lt;/span&gt;&lt;span style=&quot;color: rgb(128, 0, 0);&quot;&gt;&amp;gt;&lt;/span&gt;&lt;/font&gt;&lt;/div&gt;&lt;div style=&quot;background-color: light-dark(rgb(255, 255, 255), rgb(18, 18, 18)); color: light-dark(rgb(59, 59, 59), rgb(186, 186, 186)); font-weight: normal;&quot;&gt;&lt;font style=&quot;font-size: 16px;&quot;&gt;&lt;span style=&quot;color: rgb(59, 59, 59);&quot;&gt;&amp;nbsp; &amp;nbsp; &amp;nbsp; &lt;/span&gt;&lt;span style=&quot;color: rgb(128, 0, 0);&quot;&gt;&amp;lt;&lt;/span&gt;&lt;span style=&quot;color: rgb(128, 0, 0);&quot;&gt;ul&lt;/span&gt;&lt;span style=&quot;color: rgb(128, 0, 0);&quot;&gt;&amp;gt;&lt;/span&gt;&lt;/font&gt;&lt;/div&gt;&lt;div style=&quot;background-color: light-dark(rgb(255, 255, 255), rgb(18, 18, 18)); color: light-dark(rgb(59, 59, 59), rgb(186, 186, 186)); font-weight: normal;&quot;&gt;&lt;font style=&quot;font-size: 16px;&quot;&gt;&lt;span style=&quot;background-color: light-dark(rgb(255, 255, 255), rgb(18, 18, 18)); color: rgb(0, 0, 0);&quot;&gt;&amp;nbsp; &amp;nbsp; &amp;nbsp;   &amp;nbsp; &lt;/span&gt;&lt;span style=&quot;background-color: light-dark(rgb(255, 255, 255), rgb(18, 18, 18)); color: rgb(128, 0, 0);&quot;&gt;&amp;lt;&lt;/span&gt;&lt;span style=&quot;background-color: light-dark(rgb(255, 255, 255), rgb(18, 18, 18)); color: rgb(128, 0, 0);&quot;&gt;span&lt;/span&gt;&lt;/font&gt;&lt;/div&gt;&lt;div style=&quot;background-color: light-dark(rgb(255, 255, 255), rgb(18, 18, 18)); color: light-dark(rgb(59, 59, 59), rgb(186, 186, 186)); font-weight: normal;&quot;&gt;&lt;font style=&quot;font-size: 16px;&quot;&gt;&lt;span style=&quot;color: rgb(0, 0, 0);&quot;&gt;&amp;nbsp; &amp;nbsp; &amp;nbsp; &amp;nbsp;&amp;nbsp; &amp;nbsp; &lt;/span&gt;&lt;span style=&quot;color: rgb(229, 0, 0);&quot;&gt;className&lt;/span&gt;&lt;span style=&quot;color: rgb(0, 0, 0);&quot;&gt;=&lt;/span&gt;&lt;span style=&quot;color: rgb(0, 0, 255);&quot;&gt;{&lt;/span&gt;&lt;span style=&quot;color: rgb(0, 112, 193);&quot;&gt;styles&lt;/span&gt;&lt;span style=&quot;color: rgb(0, 0, 0);&quot;&gt;.&lt;/span&gt;&lt;span style=&quot;color: rgb(0, 16, 128);&quot;&gt;editIcon&lt;/span&gt;&lt;span style=&quot;color: rgb(0, 0, 255);&quot;&gt;}&lt;/span&gt;&lt;/font&gt;&lt;/div&gt;&lt;div style=&quot;background-color: light-dark(rgb(255, 255, 255), rgb(18, 18, 18)); color: light-dark(rgb(59, 59, 59), rgb(186, 186, 186)); font-weight: normal;&quot;&gt;&lt;font style=&quot;font-size: 16px;&quot;&gt;&lt;span style=&quot;color: rgb(0, 0, 0);&quot;&gt;&amp;nbsp; &amp;nbsp; &amp;nbsp; &amp;nbsp;&amp;nbsp; &amp;nbsp; &lt;/span&gt;&lt;span style=&quot;color: rgb(229, 0, 0);&quot;&gt;onClick&lt;/span&gt;&lt;span style=&quot;color: rgb(0, 0, 0);&quot;&gt;=&lt;/span&gt;&lt;span style=&quot;color: rgb(0, 0, 255);&quot;&gt;{&lt;/span&gt;&lt;span style=&quot;color: rgb(0, 0, 0);&quot;&gt;() &lt;/span&gt;&lt;span style=&quot;color: rgb(0, 0, 255);&quot;&gt;=&amp;gt;&lt;/span&gt;&lt;span style=&quot;color: rgb(0, 0, 0);&quot;&gt; &lt;/span&gt;&lt;span style=&quot;color: rgb(121, 94, 38);&quot;&gt;selectedCategoryDispatch&lt;/span&gt;&lt;span style=&quot;color: rgb(0, 0, 0);&quot;&gt;({ &lt;/span&gt;&lt;span style=&quot;color: rgb(0, 16, 128);&quot;&gt;type&lt;/span&gt;&lt;span style=&quot;color: rgb(0, 16, 128);&quot;&gt;:&lt;/span&gt;&lt;span style=&quot;color: rgb(0, 0, 0);&quot;&gt; &lt;/span&gt;&lt;span style=&quot;color: rgb(163, 21, 21);&quot;&gt;&quot;delete&quot;&lt;/span&gt;&lt;span style=&quot;color: rgb(0, 0, 0);&quot;&gt;, &lt;/span&gt;&lt;span style=&quot;color: rgb(0, 16, 128);&quot;&gt;category&lt;/span&gt;&lt;span style=&quot;color: rgb(0, 16, 128);&quot;&gt;:&lt;/span&gt;&lt;span style=&quot;color: rgb(0, 0, 0);&quot;&gt; &lt;/span&gt;&lt;span style=&quot;color: rgb(0, 16, 128);&quot;&gt;category&lt;/span&gt;&lt;span style=&quot;color: rgb(0, 0, 0);&quot;&gt; })&lt;/span&gt;&lt;span style=&quot;color: rgb(0, 0, 255);&quot;&gt;}&lt;/span&gt;&lt;/font&gt;&lt;/div&gt;&lt;div style=&quot;background-color: light-dark(rgb(255, 255, 255), rgb(18, 18, 18)); color: light-dark(rgb(59, 59, 59), rgb(186, 186, 186)); font-weight: normal;&quot;&gt;&lt;font style=&quot;font-size: 16px;&quot;&gt;&lt;span style=&quot;color: rgb(0, 0, 0);&quot;&gt;&amp;nbsp; &amp;nbsp; &amp;nbsp; &amp;nbsp;&amp;nbsp; &amp;nbsp; &lt;/span&gt;&lt;span style=&quot;color: rgb(229, 0, 0);&quot;&gt;title&lt;/span&gt;&lt;span style=&quot;color: rgb(0, 0, 0);&quot;&gt;=&lt;/span&gt;&lt;span style=&quot;color: rgb(163, 21, 21);&quot;&gt;&quot;Delete&quot;&lt;/span&gt;&lt;span style=&quot;background-color: light-dark(rgb(255, 255, 255), rgb(18, 18, 18)); color: rgb(128, 0, 0);&quot;&gt;&amp;gt;&lt;/span&gt;&lt;/font&gt;&lt;/div&gt;&lt;div style=&quot;background-color: light-dark(rgb(255, 255, 255), rgb(18, 18, 18)); color: light-dark(rgb(59, 59, 59), rgb(186, 186, 186)); font-weight: normal;&quot;&gt;&lt;span style=&quot;color: rgb(0, 0, 0);&quot;&gt;&lt;font style=&quot;font-size: 16px;&quot;&gt;&amp;nbsp; &amp;nbsp; &amp;nbsp; &amp;nbsp;&amp;nbsp; &amp;nbsp; 🗑️&lt;/font&gt;&lt;/span&gt;&lt;/div&gt;&lt;div style=&quot;background-color: light-dark(rgb(255, 255, 255), rgb(18, 18, 18)); color: light-dark(rgb(59, 59, 59), rgb(186, 186, 186)); font-weight: normal;&quot;&gt;&lt;font style=&quot;font-size: 16px;&quot;&gt;&lt;span style=&quot;color: rgb(0, 0, 0);&quot;&gt;&amp;nbsp; &amp;nbsp; &amp;nbsp; &amp;nbsp;&amp;nbsp; &lt;/span&gt;&lt;span style=&quot;color: rgb(128, 0, 0);&quot;&gt;&amp;lt;/&lt;/span&gt;&lt;span style=&quot;color: rgb(128, 0, 0);&quot;&gt;span&lt;/span&gt;&lt;span style=&quot;color: rgb(128, 0, 0);&quot;&gt;&amp;gt;&lt;/span&gt;&lt;/font&gt;&lt;/div&gt;&lt;div style=&quot;background-color: light-dark(rgb(255, 255, 255), rgb(18, 18, 18)); color: light-dark(rgb(59, 59, 59), rgb(186, 186, 186)); font-weight: normal;&quot;&gt;&lt;font style=&quot;font-size: 16px;&quot;&gt;&lt;span style=&quot;background-color: light-dark(rgb(255, 255, 255), rgb(18, 18, 18)); color: rgb(59, 59, 59);&quot;&gt;&amp;nbsp; &amp;nbsp; &amp;nbsp; &lt;/span&gt;&lt;span style=&quot;background-color: light-dark(rgb(255, 255, 255), rgb(18, 18, 18)); color: rgb(128, 0, 0);&quot;&gt;&amp;lt;/&lt;/span&gt;&lt;span style=&quot;background-color: light-dark(rgb(255, 255, 255), rgb(18, 18, 18)); color: rgb(128, 0, 0);&quot;&gt;ul&lt;/span&gt;&lt;span style=&quot;background-color: light-dark(rgb(255, 255, 255), rgb(18, 18, 18)); color: rgb(128, 0, 0);&quot;&gt;&amp;gt;&lt;/span&gt;&lt;/font&gt;&lt;/div&gt;&lt;div style=&quot;background-color: light-dark(rgb(255, 255, 255), rgb(18, 18, 18)); color: light-dark(rgb(59, 59, 59), rgb(186, 186, 186)); font-weight: normal;&quot;&gt;&lt;font style=&quot;font-size: 16px;&quot;&gt;&lt;span style=&quot;color: rgb(59, 59, 59);&quot;&gt;&amp;nbsp; &amp;nbsp; &amp;nbsp; &lt;/span&gt;&lt;span style=&quot;color: rgb(0, 0, 255);&quot;&gt;{&lt;/span&gt;&lt;span style=&quot;color: rgb(0, 112, 193);&quot;&gt;selectedCategory&lt;/span&gt;&lt;span style=&quot;color: rgb(0, 0, 0);&quot;&gt;.&lt;/span&gt;&lt;span style=&quot;color: rgb(0, 16, 128);&quot;&gt;actionType&lt;/span&gt;&lt;span style=&quot;color: rgb(0, 0, 0);&quot;&gt; == &lt;/span&gt;&lt;span style=&quot;color: rgb(163, 21, 21);&quot;&gt;&quot;delete&quot;&lt;/span&gt;&lt;span style=&quot;color: rgb(0, 0, 0);&quot;&gt; &amp;amp;&amp;amp; (&lt;/span&gt;&lt;/font&gt;&lt;/div&gt;&lt;div style=&quot;background-color: light-dark(rgb(255, 255, 255), rgb(18, 18, 18)); color: light-dark(rgb(59, 59, 59), rgb(186, 186, 186)); font-weight: normal;&quot;&gt;&lt;font style=&quot;font-size: 16px;&quot;&gt;&lt;span style=&quot;color: rgb(0, 0, 0);&quot;&gt;&amp;nbsp; &amp;nbsp; &amp;nbsp; &amp;nbsp; &lt;/span&gt;&lt;span style=&quot;color: rgb(128, 0, 0);&quot;&gt;&amp;lt;&lt;/span&gt;&lt;span style=&quot;color: rgb(38, 127, 153);&quot;&gt;CategoryDelete&lt;/span&gt;&lt;span style=&quot;color: rgb(0, 0, 0);&quot;&gt; &lt;/span&gt;&lt;span style=&quot;color: rgb(229, 0, 0);&quot;&gt;category&lt;/span&gt;&lt;span style=&quot;color: rgb(0, 0, 0);&quot;&gt;=&lt;/span&gt;&lt;span style=&quot;color: rgb(0, 0, 255);&quot;&gt;{&lt;/span&gt;&lt;span style=&quot;color: rgb(0, 112, 193);&quot;&gt;selectedCategory&lt;/span&gt;&lt;span style=&quot;color: rgb(0, 0, 0);&quot;&gt;.&lt;/span&gt;&lt;span style=&quot;color: rgb(0, 16, 128);&quot;&gt;category&lt;/span&gt;&lt;span style=&quot;color: rgb(0, 0, 255);&quot;&gt;}&lt;/span&gt;&lt;/font&gt;&lt;/div&gt;&lt;div style=&quot;background-color: light-dark(rgb(255, 255, 255), rgb(18, 18, 18)); color: light-dark(rgb(59, 59, 59), rgb(186, 186, 186)); font-weight: normal;&quot;&gt;&lt;font style=&quot;font-size: 16px;&quot;&gt;&lt;span style=&quot;color: rgb(0, 0, 0);&quot;&gt;&amp;nbsp; &amp;nbsp; &amp;nbsp; &amp;nbsp; &amp;nbsp; &lt;/span&gt;&lt;span style=&quot;color: rgb(229, 0, 0);&quot;&gt;onCancel&lt;/span&gt;&lt;span style=&quot;color: rgb(0, 0, 0);&quot;&gt;=&lt;/span&gt;&lt;span style=&quot;color: rgb(0, 0, 255);&quot;&gt;{&lt;/span&gt;&lt;span style=&quot;color: rgb(0, 0, 0);&quot;&gt;() &lt;/span&gt;&lt;span style=&quot;color: rgb(0, 0, 255);&quot;&gt;=&amp;gt;&lt;/span&gt;&lt;span style=&quot;color: rgb(0, 0, 0);&quot;&gt; &lt;/span&gt;&lt;span style=&quot;color: rgb(121, 94, 38);&quot;&gt;selectedCategoryDispatch&lt;/span&gt;&lt;span style=&quot;color: rgb(0, 0, 0);&quot;&gt;({ &lt;/span&gt;&lt;span style=&quot;color: rgb(0, 16, 128);&quot;&gt;type&lt;/span&gt;&lt;span style=&quot;color: rgb(0, 16, 128);&quot;&gt;:&lt;/span&gt;&lt;span style=&quot;color: rgb(0, 0, 0);&quot;&gt; &lt;/span&gt;&lt;span style=&quot;color: rgb(0, 0, 255);&quot;&gt;null&lt;/span&gt;&lt;span style=&quot;color: rgb(0, 0, 0);&quot;&gt;, &lt;/span&gt;&lt;span style=&quot;color: rgb(0, 16, 128);&quot;&gt;category&lt;/span&gt;&lt;span style=&quot;color: rgb(0, 16, 128);&quot;&gt;:&lt;/span&gt;&lt;span style=&quot;color: rgb(0, 0, 0);&quot;&gt; &lt;/span&gt;&lt;span style=&quot;color: rgb(0, 0, 255);&quot;&gt;null&lt;/span&gt;&lt;span style=&quot;color: rgb(0, 0, 0);&quot;&gt; })&lt;/span&gt;&lt;span style=&quot;color: rgb(0, 0, 255);&quot;&gt;}&lt;/span&gt;&lt;/font&gt;&lt;/div&gt;&lt;div style=&quot;background-color: light-dark(rgb(255, 255, 255), rgb(18, 18, 18)); color: light-dark(rgb(59, 59, 59), rgb(186, 186, 186)); font-weight: normal;&quot;&gt;&lt;font style=&quot;font-size: 16px;&quot;&gt;&lt;span style=&quot;color: rgb(0, 0, 0);&quot;&gt;&amp;nbsp; &amp;nbsp; &amp;nbsp; &amp;nbsp; &amp;nbsp; &lt;/span&gt;&lt;span style=&quot;color: rgb(229, 0, 0);&quot;&gt;onDeleted&lt;/span&gt;&lt;span style=&quot;color: rgb(0, 0, 0);&quot;&gt;=&lt;/span&gt;&lt;span style=&quot;color: rgb(0, 0, 255);&quot;&gt;{&lt;/span&gt;&lt;span style=&quot;color: rgb(0, 0, 0);&quot;&gt;() &lt;/span&gt;&lt;span style=&quot;color: rgb(0, 0, 255);&quot;&gt;=&amp;gt;&lt;/span&gt;&lt;span style=&quot;color: rgb(0, 0, 0);&quot;&gt; &lt;/span&gt;&lt;span style=&quot;color: rgb(121, 94, 38);&quot;&gt;selectedCategoryDispatch&lt;/span&gt;&lt;span style=&quot;color: rgb(0, 0, 0);&quot;&gt;({ &lt;/span&gt;&lt;span style=&quot;color: rgb(0, 16, 128);&quot;&gt;type&lt;/span&gt;&lt;span style=&quot;color: rgb(0, 16, 128);&quot;&gt;:&lt;/span&gt;&lt;span style=&quot;color: rgb(0, 0, 0);&quot;&gt; &lt;/span&gt;&lt;span style=&quot;color: rgb(0, 0, 255);&quot;&gt;null&lt;/span&gt;&lt;span style=&quot;color: rgb(0, 0, 0);&quot;&gt;, &lt;/span&gt;&lt;span style=&quot;color: rgb(0, 16, 128);&quot;&gt;category&lt;/span&gt;&lt;span style=&quot;color: rgb(0, 16, 128);&quot;&gt;:&lt;/span&gt;&lt;span style=&quot;color: rgb(0, 0, 0);&quot;&gt; &lt;/span&gt;&lt;span style=&quot;color: rgb(0, 0, 255);&quot;&gt;null&lt;/span&gt;&lt;span style=&quot;color: rgb(0, 0, 0);&quot;&gt; })&lt;/span&gt;&lt;span style=&quot;color: rgb(0, 0, 255);&quot;&gt;}&lt;/span&gt;&lt;span style=&quot;color: rgb(0, 0, 0);&quot;&gt; &lt;/span&gt;&lt;span style=&quot;color: rgb(128, 0, 0);&quot;&gt;/&amp;gt;&lt;/span&gt;&lt;/font&gt;&lt;/div&gt;&lt;div style=&quot;background-color: light-dark(rgb(255, 255, 255), rgb(18, 18, 18)); color: light-dark(rgb(59, 59, 59), rgb(186, 186, 186)); font-weight: normal;&quot;&gt;&lt;font style=&quot;font-size: 16px;&quot;&gt;&lt;span style=&quot;color: rgb(0, 0, 0);&quot;&gt;&amp;nbsp; &amp;nbsp; &amp;nbsp; )&lt;/span&gt;&lt;span style=&quot;color: rgb(0, 0, 255);&quot;&gt;}&lt;/span&gt;&lt;/font&gt;&lt;/div&gt;&lt;div style=&quot;background-color: light-dark(rgb(255, 255, 255), rgb(18, 18, 18)); color: light-dark(rgb(59, 59, 59), rgb(186, 186, 186)); font-weight: normal;&quot;&gt;&lt;font style=&quot;font-size: 16px;&quot;&gt;&lt;span style=&quot;color: rgb(59, 59, 59);&quot;&gt;&amp;nbsp; &amp;nbsp; &lt;/span&gt;&lt;span style=&quot;color: rgb(128, 0, 0);&quot;&gt;&amp;lt;/&lt;/span&gt;&lt;span style=&quot;color: rgb(128, 0, 0);&quot;&gt;div&lt;/span&gt;&lt;span style=&quot;color: rgb(128, 0, 0);&quot;&gt;&amp;gt;&lt;/span&gt;&lt;/font&gt;&lt;/div&gt;&lt;div style=&quot;background-color: light-dark(rgb(255, 255, 255), rgb(18, 18, 18)); color: light-dark(rgb(59, 59, 59), rgb(186, 186, 186)); font-weight: normal;&quot;&gt;&lt;span style=&quot;color: rgb(59, 59, 59);&quot;&gt;&lt;font style=&quot;font-size: 16px;&quot;&gt;&amp;nbsp; );&lt;/font&gt;&lt;/span&gt;&lt;/div&gt;&lt;div style=&quot;background-color: light-dark(rgb(255, 255, 255), rgb(18, 18, 18)); color: light-dark(rgb(59, 59, 59), rgb(186, 186, 186)); font-weight: normal;&quot;&gt;&lt;span style=&quot;color: rgb(59, 59, 59);&quot;&gt;&lt;font style=&quot;font-size: 16px;&quot;&gt;}&lt;/font&gt;&lt;/span&gt;&lt;/div&gt;&lt;font style=&quot;background-color: light-dark(rgb(255, 255, 255), rgb(18, 18, 18)); color: rgb(255, 0, 0);&quot;&gt;&lt;br&gt;&lt;/font&gt;&lt;/div&gt;" link="&lt;div style=&quot;color: #3b3b3b;background-color: #ffffff;font-family: &#39;Cascadia Code&#39;, Consolas, &#39;Courier New&#39;, monospace;font-weight: normal;font-size: 14px;line-height: 19px;white-space: pre;&quot;&gt;&lt;div&gt;&lt;span style=&quot;color: #a31515;&quot;&gt;&quot;use client&quot;&lt;/span&gt;&lt;span style=&quot;color: #3b3b3b;&quot;&gt;;&lt;/span&gt;&lt;/div&gt;&lt;div&gt;&lt;span style=&quot;color: #af00db;&quot;&gt;import&lt;/span&gt;&lt;span style=&quot;color: #3b3b3b;&quot;&gt; &lt;/span&gt;&lt;span style=&quot;color: #001080;&quot;&gt;React&lt;/span&gt;&lt;span style=&quot;color: #3b3b3b;&quot;&gt;, { &lt;/span&gt;&lt;span style=&quot;color: #001080;&quot;&gt;useReducer&lt;/span&gt;&lt;span style=&quot;color: #3b3b3b;&quot;&gt;, &lt;/span&gt;&lt;span style=&quot;color: #001080;&quot;&gt;useRef&lt;/span&gt;&lt;span style=&quot;color: #3b3b3b;&quot;&gt; } &lt;/span&gt;&lt;span style=&quot;color: #af00db;&quot;&gt;from&lt;/span&gt;&lt;span style=&quot;color: #3b3b3b;&quot;&gt; &lt;/span&gt;&lt;span style=&quot;color: #a31515;&quot;&gt;&quot;react&quot;&lt;/span&gt;&lt;span style=&quot;color: #3b3b3b;&quot;&gt;;&lt;/span&gt;&lt;/div&gt;&lt;div&gt;&lt;span style=&quot;color: #af00db;&quot;&gt;import&lt;/span&gt;&lt;span style=&quot;color: #3b3b3b;&quot;&gt; { &lt;/span&gt;&lt;span style=&quot;color: #001080;&quot;&gt;Category&lt;/span&gt;&lt;span style=&quot;color: #3b3b3b;&quot;&gt; } &lt;/span&gt;&lt;span style=&quot;color: #af00db;&quot;&gt;from&lt;/span&gt;&lt;span style=&quot;color: #3b3b3b;&quot;&gt; &lt;/span&gt;&lt;span style=&quot;color: #a31515;&quot;&gt;&quot;@/app/types/Category&quot;&lt;/span&gt;&lt;span style=&quot;color: #3b3b3b;&quot;&gt;;&lt;/span&gt;&lt;/div&gt;&lt;div&gt;&lt;span style=&quot;color: #af00db;&quot;&gt;import&lt;/span&gt;&lt;span style=&quot;color: #3b3b3b;&quot;&gt; &lt;/span&gt;&lt;span style=&quot;color: #001080;&quot;&gt;ModalDialog&lt;/span&gt;&lt;span style=&quot;color: #3b3b3b;&quot;&gt; &lt;/span&gt;&lt;span style=&quot;color: #af00db;&quot;&gt;from&lt;/span&gt;&lt;span style=&quot;color: #3b3b3b;&quot;&gt; &lt;/span&gt;&lt;span style=&quot;color: #a31515;&quot;&gt;&quot;@/app/components/ModalDialog&quot;&lt;/span&gt;&lt;span style=&quot;color: #3b3b3b;&quot;&gt;;&lt;/span&gt;&lt;/div&gt;&lt;div&gt;&lt;span style=&quot;color: #af00db;&quot;&gt;import&lt;/span&gt;&lt;span style=&quot;color: #3b3b3b;&quot;&gt; &lt;/span&gt;&lt;span style=&quot;color: #001080;&quot;&gt;CategoryEdit&lt;/span&gt;&lt;span style=&quot;color: #3b3b3b;&quot;&gt;, { &lt;/span&gt;&lt;span style=&quot;color: #001080;&quot;&gt;CategoryEditRef&lt;/span&gt;&lt;span style=&quot;color: #3b3b3b;&quot;&gt; } &lt;/span&gt;&lt;span style=&quot;color: #af00db;&quot;&gt;from&lt;/span&gt;&lt;span style=&quot;color: #3b3b3b;&quot;&gt; &lt;/span&gt;&lt;span style=&quot;color: #a31515;&quot;&gt;&quot;./CategoryEdit&quot;&lt;/span&gt;&lt;span style=&quot;color: #3b3b3b;&quot;&gt;;&lt;/span&gt;&lt;/div&gt;&lt;div&gt;&lt;span style=&quot;color: #af00db;&quot;&gt;import&lt;/span&gt;&lt;span style=&quot;color: #3b3b3b;&quot;&gt; &lt;/span&gt;&lt;span style=&quot;color: #001080;&quot;&gt;styles&lt;/span&gt;&lt;span style=&quot;color: #3b3b3b;&quot;&gt; &lt;/span&gt;&lt;span style=&quot;color: #af00db;&quot;&gt;from&lt;/span&gt;&lt;span style=&quot;color: #3b3b3b;&quot;&gt; &lt;/span&gt;&lt;span style=&quot;color: #a31515;&quot;&gt;&quot;./CategoryList.module.css&quot;&lt;/span&gt;&lt;span style=&quot;color: #3b3b3b;&quot;&gt;;&lt;/span&gt;&lt;/div&gt;&lt;div&gt;&lt;span style=&quot;color: #af00db;&quot;&gt;import&lt;/span&gt;&lt;span style=&quot;color: #3b3b3b;&quot;&gt; &lt;/span&gt;&lt;span style=&quot;color: #001080;&quot;&gt;CategoryDelete&lt;/span&gt;&lt;span style=&quot;color: #3b3b3b;&quot;&gt; &lt;/span&gt;&lt;span style=&quot;color: #af00db;&quot;&gt;from&lt;/span&gt;&lt;span style=&quot;color: #3b3b3b;&quot;&gt; &lt;/span&gt;&lt;span style=&quot;color: #a31515;&quot;&gt;&quot;./CategoryDelete&quot;&lt;/span&gt;&lt;span style=&quot;color: #3b3b3b;&quot;&gt;;&lt;/span&gt;&lt;/div&gt;&lt;br&gt;&lt;div&gt;&lt;span style=&quot;color: #008000;&quot;&gt;// Discriminated unions in typescript&lt;/span&gt;&lt;/div&gt;&lt;div&gt;&lt;span style=&quot;color: #0000ff;&quot;&gt;type&lt;/span&gt;&lt;span style=&quot;color: #3b3b3b;&quot;&gt; &lt;/span&gt;&lt;span style=&quot;color: #267f99;&quot;&gt;EditDeleteReducerAction&lt;/span&gt;&lt;span style=&quot;color: #3b3b3b;&quot;&gt; &lt;/span&gt;&lt;span style=&quot;color: #000000;&quot;&gt;=&lt;/span&gt;&lt;/div&gt;&lt;div&gt;&lt;span style=&quot;color: #3b3b3b;&quot;&gt;&amp;nbsp; &lt;/span&gt;&lt;span style=&quot;color: #000000;&quot;&gt;|&lt;/span&gt;&lt;span style=&quot;color: #3b3b3b;&quot;&gt; { &lt;/span&gt;&lt;span style=&quot;color: #001080;&quot;&gt;type&lt;/span&gt;&lt;span style=&quot;color: #000000;&quot;&gt;:&lt;/span&gt;&lt;span style=&quot;color: #3b3b3b;&quot;&gt; &lt;/span&gt;&lt;span style=&quot;color: #267f99;&quot;&gt;null&lt;/span&gt;&lt;span style=&quot;color: #3b3b3b;&quot;&gt;; &lt;/span&gt;&lt;span style=&quot;color: #001080;&quot;&gt;category&lt;/span&gt;&lt;span style=&quot;color: #000000;&quot;&gt;:&lt;/span&gt;&lt;span style=&quot;color: #3b3b3b;&quot;&gt; &lt;/span&gt;&lt;span style=&quot;color: #267f99;&quot;&gt;null&lt;/span&gt;&lt;span style=&quot;color: #3b3b3b;&quot;&gt; } &amp;nbsp; &amp;nbsp; &amp;nbsp; &amp;nbsp; &amp;nbsp; &amp;nbsp; &amp;nbsp; &amp;nbsp; &amp;nbsp; &lt;/span&gt;&lt;span style=&quot;color: #008000;&quot;&gt;// Wenn actionType null ist, ist category null&lt;/span&gt;&lt;/div&gt;&lt;div&gt;&lt;span style=&quot;color: #3b3b3b;&quot;&gt;&amp;nbsp; &lt;/span&gt;&lt;span style=&quot;color: #000000;&quot;&gt;|&lt;/span&gt;&lt;span style=&quot;color: #3b3b3b;&quot;&gt; { &lt;/span&gt;&lt;span style=&quot;color: #001080;&quot;&gt;type&lt;/span&gt;&lt;span style=&quot;color: #000000;&quot;&gt;:&lt;/span&gt;&lt;span style=&quot;color: #3b3b3b;&quot;&gt; &lt;/span&gt;&lt;span style=&quot;color: #a31515;&quot;&gt;&quot;edit&quot;&lt;/span&gt;&lt;span style=&quot;color: #3b3b3b;&quot;&gt; &lt;/span&gt;&lt;span style=&quot;color: #000000;&quot;&gt;|&lt;/span&gt;&lt;span style=&quot;color: #3b3b3b;&quot;&gt; &lt;/span&gt;&lt;span style=&quot;color: #a31515;&quot;&gt;&quot;delete&quot;&lt;/span&gt;&lt;span style=&quot;color: #3b3b3b;&quot;&gt;; &lt;/span&gt;&lt;span style=&quot;color: #001080;&quot;&gt;category&lt;/span&gt;&lt;span style=&quot;color: #000000;&quot;&gt;:&lt;/span&gt;&lt;span style=&quot;color: #3b3b3b;&quot;&gt; &lt;/span&gt;&lt;span style=&quot;color: #267f99;&quot;&gt;Category&lt;/span&gt;&lt;span style=&quot;color: #3b3b3b;&quot;&gt; }; &lt;/span&gt;&lt;span style=&quot;color: #008000;&quot;&gt;// Wenn actionType &quot;edit&quot; oder &quot;delete&quot; ist, ist category vom Typ Category&lt;/span&gt;&lt;/div&gt;&lt;div&gt;&lt;span style=&quot;color: #0000ff;&quot;&gt;type&lt;/span&gt;&lt;span style=&quot;color: #3b3b3b;&quot;&gt; &lt;/span&gt;&lt;span style=&quot;color: #267f99;&quot;&gt;EditDeleteState&lt;/span&gt;&lt;span style=&quot;color: #3b3b3b;&quot;&gt; &lt;/span&gt;&lt;span style=&quot;color: #000000;&quot;&gt;=&lt;/span&gt;&lt;/div&gt;&lt;div&gt;&lt;span style=&quot;color: #3b3b3b;&quot;&gt;&amp;nbsp; &lt;/span&gt;&lt;span style=&quot;color: #000000;&quot;&gt;|&lt;/span&gt;&lt;span style=&quot;color: #3b3b3b;&quot;&gt; { &lt;/span&gt;&lt;span style=&quot;color: #001080;&quot;&gt;actionType&lt;/span&gt;&lt;span style=&quot;color: #000000;&quot;&gt;:&lt;/span&gt;&lt;span style=&quot;color: #3b3b3b;&quot;&gt; &lt;/span&gt;&lt;span style=&quot;color: #267f99;&quot;&gt;null&lt;/span&gt;&lt;span style=&quot;color: #3b3b3b;&quot;&gt;; &lt;/span&gt;&lt;span style=&quot;color: #001080;&quot;&gt;category&lt;/span&gt;&lt;span style=&quot;color: #000000;&quot;&gt;:&lt;/span&gt;&lt;span style=&quot;color: #3b3b3b;&quot;&gt; &lt;/span&gt;&lt;span style=&quot;color: #267f99;&quot;&gt;null&lt;/span&gt;&lt;span style=&quot;color: #3b3b3b;&quot;&gt; }&lt;/span&gt;&lt;/div&gt;&lt;div&gt;&lt;span style=&quot;color: #3b3b3b;&quot;&gt;&amp;nbsp; &lt;/span&gt;&lt;span style=&quot;color: #000000;&quot;&gt;|&lt;/span&gt;&lt;span style=&quot;color: #3b3b3b;&quot;&gt; { &lt;/span&gt;&lt;span style=&quot;color: #001080;&quot;&gt;actionType&lt;/span&gt;&lt;span style=&quot;color: #000000;&quot;&gt;:&lt;/span&gt;&lt;span style=&quot;color: #3b3b3b;&quot;&gt; &lt;/span&gt;&lt;span style=&quot;color: #a31515;&quot;&gt;&quot;edit&quot;&lt;/span&gt;&lt;span style=&quot;color: #3b3b3b;&quot;&gt; &lt;/span&gt;&lt;span style=&quot;color: #000000;&quot;&gt;|&lt;/span&gt;&lt;span style=&quot;color: #3b3b3b;&quot;&gt; &lt;/span&gt;&lt;span style=&quot;color: #a31515;&quot;&gt;&quot;delete&quot;&lt;/span&gt;&lt;span style=&quot;color: #3b3b3b;&quot;&gt;; &lt;/span&gt;&lt;span style=&quot;color: #001080;&quot;&gt;category&lt;/span&gt;&lt;span style=&quot;color: #000000;&quot;&gt;:&lt;/span&gt;&lt;span style=&quot;color: #3b3b3b;&quot;&gt; &lt;/span&gt;&lt;span style=&quot;color: #267f99;&quot;&gt;Category&lt;/span&gt;&lt;span style=&quot;color: #3b3b3b;&quot;&gt; };&lt;/span&gt;&lt;/div&gt;&lt;br&gt;&lt;div&gt;&lt;span style=&quot;color: #0000ff;&quot;&gt;function&lt;/span&gt;&lt;span style=&quot;color: #3b3b3b;&quot;&gt; &lt;/span&gt;&lt;span style=&quot;color: #795e26;&quot;&gt;editDeleteReducer&lt;/span&gt;&lt;span style=&quot;color: #3b3b3b;&quot;&gt;(&lt;/span&gt;&lt;/div&gt;&lt;div&gt;&lt;span style=&quot;color: #3b3b3b;&quot;&gt;&amp;nbsp; &lt;/span&gt;&lt;span style=&quot;color: #001080;&quot;&gt;state&lt;/span&gt;&lt;span style=&quot;color: #000000;&quot;&gt;:&lt;/span&gt;&lt;span style=&quot;color: #3b3b3b;&quot;&gt; &lt;/span&gt;&lt;span style=&quot;color: #267f99;&quot;&gt;EditDeleteState&lt;/span&gt;&lt;span style=&quot;color: #3b3b3b;&quot;&gt;,&lt;/span&gt;&lt;/div&gt;&lt;div&gt;&lt;span style=&quot;color: #3b3b3b;&quot;&gt;&amp;nbsp; &lt;/span&gt;&lt;span style=&quot;color: #001080;&quot;&gt;action&lt;/span&gt;&lt;span style=&quot;color: #000000;&quot;&gt;:&lt;/span&gt;&lt;span style=&quot;color: #3b3b3b;&quot;&gt; &lt;/span&gt;&lt;span style=&quot;color: #267f99;&quot;&gt;EditDeleteReducerAction&lt;/span&gt;&lt;span style=&quot;color: #3b3b3b;&quot;&gt;)&lt;/span&gt;&lt;span style=&quot;color: #000000;&quot;&gt;:&lt;/span&gt;&lt;span style=&quot;color: #3b3b3b;&quot;&gt; &lt;/span&gt;&lt;span style=&quot;color: #267f99;&quot;&gt;EditDeleteState&lt;/span&gt;&lt;span style=&quot;color: #3b3b3b;&quot;&gt; {&lt;/span&gt;&lt;/div&gt;&lt;div&gt;&lt;span style=&quot;color: #3b3b3b;&quot;&gt;&amp;nbsp; &lt;/span&gt;&lt;span style=&quot;color: #af00db;&quot;&gt;switch&lt;/span&gt;&lt;span style=&quot;color: #3b3b3b;&quot;&gt; (&lt;/span&gt;&lt;span style=&quot;color: #001080;&quot;&gt;action&lt;/span&gt;&lt;span style=&quot;color: #3b3b3b;&quot;&gt;.&lt;/span&gt;&lt;span style=&quot;color: #001080;&quot;&gt;type&lt;/span&gt;&lt;span style=&quot;color: #3b3b3b;&quot;&gt;) {&lt;/span&gt;&lt;/div&gt;&lt;div&gt;&lt;span style=&quot;color: #3b3b3b;&quot;&gt;&amp;nbsp; &amp;nbsp; &lt;/span&gt;&lt;span style=&quot;color: #af00db;&quot;&gt;case&lt;/span&gt;&lt;span style=&quot;color: #3b3b3b;&quot;&gt; &lt;/span&gt;&lt;span style=&quot;color: #a31515;&quot;&gt;&quot;edit&quot;&lt;/span&gt;&lt;span style=&quot;color: #3b3b3b;&quot;&gt;:&lt;/span&gt;&lt;/div&gt;&lt;div&gt;&lt;span style=&quot;color: #3b3b3b;&quot;&gt;&amp;nbsp; &amp;nbsp; &amp;nbsp; &lt;/span&gt;&lt;span style=&quot;color: #af00db;&quot;&gt;return&lt;/span&gt;&lt;span style=&quot;color: #3b3b3b;&quot;&gt; { &lt;/span&gt;&lt;span style=&quot;color: #001080;&quot;&gt;category&lt;/span&gt;&lt;span style=&quot;color: #001080;&quot;&gt;:&lt;/span&gt;&lt;span style=&quot;color: #3b3b3b;&quot;&gt; &lt;/span&gt;&lt;span style=&quot;color: #001080;&quot;&gt;action&lt;/span&gt;&lt;span style=&quot;color: #3b3b3b;&quot;&gt;.&lt;/span&gt;&lt;span style=&quot;color: #001080;&quot;&gt;category&lt;/span&gt;&lt;span style=&quot;color: #3b3b3b;&quot;&gt;, &lt;/span&gt;&lt;span style=&quot;color: #001080;&quot;&gt;actionType&lt;/span&gt;&lt;span style=&quot;color: #001080;&quot;&gt;:&lt;/span&gt;&lt;span style=&quot;color: #3b3b3b;&quot;&gt; &lt;/span&gt;&lt;span style=&quot;color: #a31515;&quot;&gt;&quot;edit&quot;&lt;/span&gt;&lt;span style=&quot;color: #3b3b3b;&quot;&gt; };&lt;/span&gt;&lt;/div&gt;&lt;div&gt;&lt;span style=&quot;color: #3b3b3b;&quot;&gt;&amp;nbsp; &amp;nbsp; &lt;/span&gt;&lt;span style=&quot;color: #af00db;&quot;&gt;case&lt;/span&gt;&lt;span style=&quot;color: #3b3b3b;&quot;&gt; &lt;/span&gt;&lt;span style=&quot;color: #a31515;&quot;&gt;&quot;delete&quot;&lt;/span&gt;&lt;span style=&quot;color: #3b3b3b;&quot;&gt;:&lt;/span&gt;&lt;/div&gt;&lt;div&gt;&lt;span style=&quot;color: #3b3b3b;&quot;&gt;&amp;nbsp; &amp;nbsp; &amp;nbsp; &lt;/span&gt;&lt;span style=&quot;color: #af00db;&quot;&gt;return&lt;/span&gt;&lt;span style=&quot;color: #3b3b3b;&quot;&gt; { &lt;/span&gt;&lt;span style=&quot;color: #001080;&quot;&gt;category&lt;/span&gt;&lt;span style=&quot;color: #001080;&quot;&gt;:&lt;/span&gt;&lt;span style=&quot;color: #3b3b3b;&quot;&gt; &lt;/span&gt;&lt;span style=&quot;color: #001080;&quot;&gt;action&lt;/span&gt;&lt;span style=&quot;color: #3b3b3b;&quot;&gt;.&lt;/span&gt;&lt;span style=&quot;color: #001080;&quot;&gt;category&lt;/span&gt;&lt;span style=&quot;color: #3b3b3b;&quot;&gt;, &lt;/span&gt;&lt;span style=&quot;color: #001080;&quot;&gt;actionType&lt;/span&gt;&lt;span style=&quot;color: #001080;&quot;&gt;:&lt;/span&gt;&lt;span style=&quot;color: #3b3b3b;&quot;&gt; &lt;/span&gt;&lt;span style=&quot;color: #a31515;&quot;&gt;&quot;delete&quot;&lt;/span&gt;&lt;span style=&quot;color: #3b3b3b;&quot;&gt; };&lt;/span&gt;&lt;/div&gt;&lt;div&gt;&lt;span style=&quot;color: #3b3b3b;&quot;&gt;&amp;nbsp; &amp;nbsp; &lt;/span&gt;&lt;span style=&quot;color: #af00db;&quot;&gt;default&lt;/span&gt;&lt;span style=&quot;color: #3b3b3b;&quot;&gt;:&lt;/span&gt;&lt;/div&gt;&lt;div&gt;&lt;span style=&quot;color: #3b3b3b;&quot;&gt;&amp;nbsp; &amp;nbsp; &amp;nbsp; &lt;/span&gt;&lt;span style=&quot;color: #af00db;&quot;&gt;return&lt;/span&gt;&lt;span style=&quot;color: #3b3b3b;&quot;&gt; { &lt;/span&gt;&lt;span style=&quot;color: #001080;&quot;&gt;category&lt;/span&gt;&lt;span style=&quot;color: #001080;&quot;&gt;:&lt;/span&gt;&lt;span style=&quot;color: #3b3b3b;&quot;&gt; &lt;/span&gt;&lt;span style=&quot;color: #0000ff;&quot;&gt;null&lt;/span&gt;&lt;span style=&quot;color: #3b3b3b;&quot;&gt;, &lt;/span&gt;&lt;span style=&quot;color: #001080;&quot;&gt;actionType&lt;/span&gt;&lt;span style=&quot;color: #001080;&quot;&gt;:&lt;/span&gt;&lt;span style=&quot;color: #3b3b3b;&quot;&gt; &lt;/span&gt;&lt;span style=&quot;color: #0000ff;&quot;&gt;null&lt;/span&gt;&lt;span style=&quot;color: #3b3b3b;&quot;&gt; };&lt;/span&gt;&lt;/div&gt;&lt;div&gt;&lt;span style=&quot;color: #3b3b3b;&quot;&gt;&amp;nbsp; }&lt;/span&gt;&lt;/div&gt;&lt;div&gt;&lt;span style=&quot;color: #3b3b3b;&quot;&gt;}&lt;/span&gt;&lt;/div&gt;&lt;div&gt;&lt;span style=&quot;color: #af00db;&quot;&gt;export&lt;/span&gt;&lt;span style=&quot;color: #3b3b3b;&quot;&gt; &lt;/span&gt;&lt;span style=&quot;color: #af00db;&quot;&gt;default&lt;/span&gt;&lt;span style=&quot;color: #3b3b3b;&quot;&gt; &lt;/span&gt;&lt;span style=&quot;color: #0000ff;&quot;&gt;function&lt;/span&gt;&lt;span style=&quot;color: #3b3b3b;&quot;&gt; &lt;/span&gt;&lt;span style=&quot;color: #795e26;&quot;&gt;CategoryList&lt;/span&gt;&lt;span style=&quot;color: #3b3b3b;&quot;&gt;({ &lt;/span&gt;&lt;span style=&quot;color: #001080;&quot;&gt;categories&lt;/span&gt;&lt;span style=&quot;color: #3b3b3b;&quot;&gt; }&lt;/span&gt;&lt;span style=&quot;color: #000000;&quot;&gt;:&lt;/span&gt;&lt;span style=&quot;color: #3b3b3b;&quot;&gt; { &lt;/span&gt;&lt;span style=&quot;color: #001080;&quot;&gt;categories&lt;/span&gt;&lt;span style=&quot;color: #000000;&quot;&gt;:&lt;/span&gt;&lt;span style=&quot;color: #3b3b3b;&quot;&gt; &lt;/span&gt;&lt;span style=&quot;color: #267f99;&quot;&gt;Category&lt;/span&gt;&lt;span style=&quot;color: #3b3b3b;&quot;&gt;[] }) {&lt;/span&gt;&lt;/div&gt;&lt;div&gt;&lt;span style=&quot;color: #3b3b3b;&quot;&gt;&amp;nbsp; &lt;/span&gt;&lt;span style=&quot;color: #0000ff;&quot;&gt;const&lt;/span&gt;&lt;span style=&quot;color: #3b3b3b;&quot;&gt; [&lt;/span&gt;&lt;span style=&quot;color: #0070c1;&quot;&gt;selectedCategory&lt;/span&gt;&lt;span style=&quot;color: #3b3b3b;&quot;&gt;, &lt;/span&gt;&lt;span style=&quot;color: #795e26;&quot;&gt;selectedCategoryDispatch&lt;/span&gt;&lt;span style=&quot;color: #3b3b3b;&quot;&gt;] &lt;/span&gt;&lt;span style=&quot;color: #000000;&quot;&gt;=&lt;/span&gt;&lt;span style=&quot;color: #3b3b3b;&quot;&gt; &lt;/span&gt;&lt;span style=&quot;color: #795e26;&quot;&gt;useReducer&lt;/span&gt;&lt;span style=&quot;color: #3b3b3b;&quot;&gt;(&lt;/span&gt;&lt;span style=&quot;color: #795e26;&quot;&gt;editDeleteReducer&lt;/span&gt;&lt;span style=&quot;color: #3b3b3b;&quot;&gt;, { &lt;/span&gt;&lt;span style=&quot;color: #001080;&quot;&gt;category&lt;/span&gt;&lt;span style=&quot;color: #001080;&quot;&gt;:&lt;/span&gt;&lt;span style=&quot;color: #3b3b3b;&quot;&gt; &lt;/span&gt;&lt;span style=&quot;color: #0000ff;&quot;&gt;null&lt;/span&gt;&lt;span style=&quot;color: #3b3b3b;&quot;&gt;, &lt;/span&gt;&lt;span style=&quot;color: #001080;&quot;&gt;actionType&lt;/span&gt;&lt;span style=&quot;color: #001080;&quot;&gt;:&lt;/span&gt;&lt;span style=&quot;color: #3b3b3b;&quot;&gt; &lt;/span&gt;&lt;span style=&quot;color: #0000ff;&quot;&gt;null&lt;/span&gt;&lt;span style=&quot;color: #3b3b3b;&quot;&gt; });&lt;/span&gt;&lt;/div&gt;&lt;div&gt;&lt;span style=&quot;color: #3b3b3b;&quot;&gt;&amp;nbsp; &lt;/span&gt;&lt;span style=&quot;color: #0000ff;&quot;&gt;const&lt;/span&gt;&lt;span style=&quot;color: #3b3b3b;&quot;&gt; &lt;/span&gt;&lt;span style=&quot;color: #0070c1;&quot;&gt;categoryEditRef&lt;/span&gt;&lt;span style=&quot;color: #3b3b3b;&quot;&gt; &lt;/span&gt;&lt;span style=&quot;color: #000000;&quot;&gt;=&lt;/span&gt;&lt;span style=&quot;color: #3b3b3b;&quot;&gt; &lt;/span&gt;&lt;span style=&quot;color: #795e26;&quot;&gt;useRef&lt;/span&gt;&lt;span style=&quot;color: #3b3b3b;&quot;&gt;&amp;lt;&lt;/span&gt;&lt;span style=&quot;color: #267f99;&quot;&gt;CategoryEditRef&lt;/span&gt;&lt;span style=&quot;color: #3b3b3b;&quot;&gt;&amp;gt;(&lt;/span&gt;&lt;span style=&quot;color: #0000ff;&quot;&gt;null&lt;/span&gt;&lt;span style=&quot;color: #3b3b3b;&quot;&gt;);&lt;/span&gt;&lt;/div&gt;&lt;div&gt;&lt;span style=&quot;color: #3b3b3b;&quot;&gt;&amp;nbsp; &lt;/span&gt;&lt;span style=&quot;color: #af00db;&quot;&gt;return&lt;/span&gt;&lt;span style=&quot;color: #3b3b3b;&quot;&gt; (&lt;/span&gt;&lt;/div&gt;&lt;div&gt;&lt;span style=&quot;color: #3b3b3b;&quot;&gt;&amp;nbsp; &amp;nbsp; &lt;/span&gt;&lt;span style=&quot;color: #800000;&quot;&gt;&amp;lt;&lt;/span&gt;&lt;span style=&quot;color: #800000;&quot;&gt;div&lt;/span&gt;&lt;span style=&quot;color: #3b3b3b;&quot;&gt; &lt;/span&gt;&lt;span style=&quot;color: #e50000;&quot;&gt;className&lt;/span&gt;&lt;span style=&quot;color: #000000;&quot;&gt;=&lt;/span&gt;&lt;span style=&quot;color: #0000ff;&quot;&gt;{&lt;/span&gt;&lt;span style=&quot;color: #0070c1;&quot;&gt;styles&lt;/span&gt;&lt;span style=&quot;color: #000000;&quot;&gt;.&lt;/span&gt;&lt;span style=&quot;color: #001080;&quot;&gt;categories&lt;/span&gt;&lt;span style=&quot;color: #0000ff;&quot;&gt;}&lt;/span&gt;&lt;span style=&quot;color: #800000;&quot;&gt;&amp;gt;&lt;/span&gt;&lt;/div&gt;&lt;div&gt;&lt;span style=&quot;color: #3b3b3b;&quot;&gt;&amp;nbsp; &amp;nbsp; &amp;nbsp; &lt;/span&gt;&lt;span style=&quot;color: #800000;&quot;&gt;&amp;lt;&lt;/span&gt;&lt;span style=&quot;color: #800000;&quot;&gt;ul&lt;/span&gt;&lt;span style=&quot;color: #800000;&quot;&gt;&amp;gt;&lt;/span&gt;&lt;/div&gt;&lt;div&gt;&lt;span style=&quot;color: #3b3b3b;&quot;&gt;&amp;nbsp; &amp;nbsp; &amp;nbsp; &amp;nbsp; &lt;/span&gt;&lt;span style=&quot;color: #0000ff;&quot;&gt;{&lt;/span&gt;&lt;span style=&quot;color: #001080;&quot;&gt;categories&lt;/span&gt;&lt;span style=&quot;color: #000000;&quot;&gt;.&lt;/span&gt;&lt;span style=&quot;color: #795e26;&quot;&gt;map&lt;/span&gt;&lt;span style=&quot;color: #000000;&quot;&gt;(&lt;/span&gt;&lt;span style=&quot;color: #001080;&quot;&gt;category&lt;/span&gt;&lt;span style=&quot;color: #000000;&quot;&gt; &lt;/span&gt;&lt;span style=&quot;color: #0000ff;&quot;&gt;=&amp;gt;&lt;/span&gt;&lt;span style=&quot;color: #000000;&quot;&gt; (&lt;/span&gt;&lt;/div&gt;&lt;div&gt;&lt;span style=&quot;color: #000000;&quot;&gt;&amp;nbsp; &amp;nbsp; &amp;nbsp; &amp;nbsp; &amp;nbsp; &lt;/span&gt;&lt;span style=&quot;color: #800000;&quot;&gt;&amp;lt;&lt;/span&gt;&lt;span style=&quot;color: #800000;&quot;&gt;li&lt;/span&gt;&lt;span style=&quot;color: #000000;&quot;&gt; &lt;/span&gt;&lt;span style=&quot;color: #e50000;&quot;&gt;key&lt;/span&gt;&lt;span style=&quot;color: #000000;&quot;&gt;=&lt;/span&gt;&lt;span style=&quot;color: #0000ff;&quot;&gt;{&lt;/span&gt;&lt;span style=&quot;color: #001080;&quot;&gt;category&lt;/span&gt;&lt;span style=&quot;color: #000000;&quot;&gt;.&lt;/span&gt;&lt;span style=&quot;color: #001080;&quot;&gt;guid&lt;/span&gt;&lt;span style=&quot;color: #0000ff;&quot;&gt;}&lt;/span&gt;&lt;span style=&quot;color: #800000;&quot;&gt;&amp;gt;&lt;/span&gt;&lt;/div&gt;&lt;div&gt;&lt;span style=&quot;color: #000000;&quot;&gt;&amp;nbsp; &amp;nbsp; &amp;nbsp; &amp;nbsp; &amp;nbsp; &amp;nbsp; &lt;/span&gt;&lt;span style=&quot;color: #800000;&quot;&gt;&amp;lt;&lt;/span&gt;&lt;span style=&quot;color: #800000;&quot;&gt;div&lt;/span&gt;&lt;span style=&quot;color: #000000;&quot;&gt; &lt;/span&gt;&lt;span style=&quot;color: #e50000;&quot;&gt;className&lt;/span&gt;&lt;span style=&quot;color: #000000;&quot;&gt;=&lt;/span&gt;&lt;span style=&quot;color: #0000ff;&quot;&gt;{&lt;/span&gt;&lt;span style=&quot;color: #0070c1;&quot;&gt;styles&lt;/span&gt;&lt;span style=&quot;color: #000000;&quot;&gt;.&lt;/span&gt;&lt;span style=&quot;color: #001080;&quot;&gt;categoryHeader&lt;/span&gt;&lt;span style=&quot;color: #0000ff;&quot;&gt;}&lt;/span&gt;&lt;span style=&quot;color: #800000;&quot;&gt;&amp;gt;&lt;/span&gt;&lt;/div&gt;&lt;div&gt;&lt;span style=&quot;color: #000000;&quot;&gt;&amp;nbsp; &amp;nbsp; &amp;nbsp; &amp;nbsp; &amp;nbsp; &amp;nbsp; &amp;nbsp; &lt;/span&gt;&lt;span style=&quot;color: #800000;&quot;&gt;&amp;lt;&lt;/span&gt;&lt;span style=&quot;color: #800000;&quot;&gt;h2&lt;/span&gt;&lt;span style=&quot;color: #800000;&quot;&gt;&amp;gt;&lt;/span&gt;&lt;span style=&quot;color: #0000ff;&quot;&gt;{&lt;/span&gt;&lt;span style=&quot;color: #001080;&quot;&gt;category&lt;/span&gt;&lt;span style=&quot;color: #000000;&quot;&gt;.&lt;/span&gt;&lt;span style=&quot;color: #001080;&quot;&gt;name&lt;/span&gt;&lt;span style=&quot;color: #0000ff;&quot;&gt;}&lt;/span&gt;&lt;span style=&quot;color: #800000;&quot;&gt;&amp;lt;/&lt;/span&gt;&lt;span style=&quot;color: #800000;&quot;&gt;h2&lt;/span&gt;&lt;span style=&quot;color: #800000;&quot;&gt;&amp;gt;&lt;/span&gt;&lt;/div&gt;&lt;div&gt;&lt;span style=&quot;color: #000000;&quot;&gt;&amp;nbsp; &amp;nbsp; &amp;nbsp; &amp;nbsp; &amp;nbsp; &amp;nbsp; &amp;nbsp; &lt;/span&gt;&lt;span style=&quot;color: #800000;&quot;&gt;&amp;lt;&lt;/span&gt;&lt;span style=&quot;color: #800000;&quot;&gt;span&lt;/span&gt;&lt;/div&gt;&lt;div&gt;&lt;span style=&quot;color: #000000;&quot;&gt;&amp;nbsp; &amp;nbsp; &amp;nbsp; &amp;nbsp; &amp;nbsp; &amp;nbsp; &amp;nbsp; &amp;nbsp; &lt;/span&gt;&lt;span style=&quot;color: #e50000;&quot;&gt;className&lt;/span&gt;&lt;span style=&quot;color: #000000;&quot;&gt;=&lt;/span&gt;&lt;span style=&quot;color: #0000ff;&quot;&gt;{&lt;/span&gt;&lt;span style=&quot;color: #0070c1;&quot;&gt;styles&lt;/span&gt;&lt;span style=&quot;color: #000000;&quot;&gt;.&lt;/span&gt;&lt;span style=&quot;color: #001080;&quot;&gt;editIcon&lt;/span&gt;&lt;span style=&quot;color: #0000ff;&quot;&gt;}&lt;/span&gt;&lt;/div&gt;&lt;div&gt;&lt;span style=&quot;color: #000000;&quot;&gt;&amp;nbsp; &amp;nbsp; &amp;nbsp; &amp;nbsp; &amp;nbsp; &amp;nbsp; &amp;nbsp; &amp;nbsp; &lt;/span&gt;&lt;span style=&quot;color: #e50000;&quot;&gt;onClick&lt;/span&gt;&lt;span style=&quot;color: #000000;&quot;&gt;=&lt;/span&gt;&lt;span style=&quot;color: #0000ff;&quot;&gt;{&lt;/span&gt;&lt;span style=&quot;color: #000000;&quot;&gt;() &lt;/span&gt;&lt;span style=&quot;color: #0000ff;&quot;&gt;=&amp;gt;&lt;/span&gt;&lt;span style=&quot;color: #000000;&quot;&gt; &lt;/span&gt;&lt;span style=&quot;color: #795e26;&quot;&gt;selectedCategoryDispatch&lt;/span&gt;&lt;span style=&quot;color: #000000;&quot;&gt;({ &lt;/span&gt;&lt;span style=&quot;color: #001080;&quot;&gt;type&lt;/span&gt;&lt;span style=&quot;color: #001080;&quot;&gt;:&lt;/span&gt;&lt;span style=&quot;color: #000000;&quot;&gt; &lt;/span&gt;&lt;span style=&quot;color: #a31515;&quot;&gt;&quot;edit&quot;&lt;/span&gt;&lt;span style=&quot;color: #000000;&quot;&gt;, &lt;/span&gt;&lt;span style=&quot;color: #001080;&quot;&gt;category&lt;/span&gt;&lt;span style=&quot;color: #001080;&quot;&gt;:&lt;/span&gt;&lt;span style=&quot;color: #000000;&quot;&gt; &lt;/span&gt;&lt;span style=&quot;color: #001080;&quot;&gt;category&lt;/span&gt;&lt;span style=&quot;color: #000000;&quot;&gt; })&lt;/span&gt;&lt;span style=&quot;color: #0000ff;&quot;&gt;}&lt;/span&gt;&lt;/div&gt;&lt;div&gt;&lt;span style=&quot;color: #000000;&quot;&gt;&amp;nbsp; &amp;nbsp; &amp;nbsp; &amp;nbsp; &amp;nbsp; &amp;nbsp; &amp;nbsp; &amp;nbsp; &lt;/span&gt;&lt;span style=&quot;color: #e50000;&quot;&gt;title&lt;/span&gt;&lt;span style=&quot;color: #000000;&quot;&gt;=&lt;/span&gt;&lt;span style=&quot;color: #a31515;&quot;&gt;&quot;Edit&quot;&lt;/span&gt;&lt;/div&gt;&lt;div&gt;&lt;span style=&quot;color: #000000;&quot;&gt;&amp;nbsp; &amp;nbsp; &amp;nbsp; &amp;nbsp; &amp;nbsp; &amp;nbsp; &amp;nbsp; &lt;/span&gt;&lt;span style=&quot;color: #800000;&quot;&gt;&amp;gt;&lt;/span&gt;&lt;/div&gt;&lt;div&gt;&lt;span style=&quot;color: #000000;&quot;&gt;&amp;nbsp; &amp;nbsp; &amp;nbsp; &amp;nbsp; &amp;nbsp; &amp;nbsp; &amp;nbsp; &amp;nbsp; ✏️&lt;/span&gt;&lt;/div&gt;&lt;div&gt;&lt;span style=&quot;color: #000000;&quot;&gt;&amp;nbsp; &amp;nbsp; &amp;nbsp; &amp;nbsp; &amp;nbsp; &amp;nbsp; &amp;nbsp; &lt;/span&gt;&lt;span style=&quot;color: #800000;&quot;&gt;&amp;lt;/&lt;/span&gt;&lt;span style=&quot;color: #800000;&quot;&gt;span&lt;/span&gt;&lt;span style=&quot;color: #800000;&quot;&gt;&amp;gt;&lt;/span&gt;&lt;/div&gt;&lt;div&gt;&lt;span style=&quot;color: #000000;&quot;&gt;&amp;nbsp; &amp;nbsp; &amp;nbsp; &amp;nbsp; &amp;nbsp; &amp;nbsp; &amp;nbsp; &lt;/span&gt;&lt;span style=&quot;color: #800000;&quot;&gt;&amp;lt;&lt;/span&gt;&lt;span style=&quot;color: #800000;&quot;&gt;span&lt;/span&gt;&lt;/div&gt;&lt;div&gt;&lt;span style=&quot;color: #000000;&quot;&gt;&amp;nbsp; &amp;nbsp; &amp;nbsp; &amp;nbsp; &amp;nbsp; &amp;nbsp; &amp;nbsp; &amp;nbsp; &lt;/span&gt;&lt;span style=&quot;color: #e50000;&quot;&gt;className&lt;/span&gt;&lt;span style=&quot;color: #000000;&quot;&gt;=&lt;/span&gt;&lt;span style=&quot;color: #0000ff;&quot;&gt;{&lt;/span&gt;&lt;span style=&quot;color: #0070c1;&quot;&gt;styles&lt;/span&gt;&lt;span style=&quot;color: #000000;&quot;&gt;.&lt;/span&gt;&lt;span style=&quot;color: #001080;&quot;&gt;editIcon&lt;/span&gt;&lt;span style=&quot;color: #0000ff;&quot;&gt;}&lt;/span&gt;&lt;/div&gt;&lt;div&gt;&lt;span style=&quot;color: #000000;&quot;&gt;&amp;nbsp; &amp;nbsp; &amp;nbsp; &amp;nbsp; &amp;nbsp; &amp;nbsp; &amp;nbsp; &amp;nbsp; &lt;/span&gt;&lt;span style=&quot;color: #e50000;&quot;&gt;onClick&lt;/span&gt;&lt;span style=&quot;color: #000000;&quot;&gt;=&lt;/span&gt;&lt;span style=&quot;color: #0000ff;&quot;&gt;{&lt;/span&gt;&lt;span style=&quot;color: #000000;&quot;&gt;() &lt;/span&gt;&lt;span style=&quot;color: #0000ff;&quot;&gt;=&amp;gt;&lt;/span&gt;&lt;span style=&quot;color: #000000;&quot;&gt; &lt;/span&gt;&lt;span style=&quot;color: #795e26;&quot;&gt;selectedCategoryDispatch&lt;/span&gt;&lt;span style=&quot;color: #000000;&quot;&gt;({ &lt;/span&gt;&lt;span style=&quot;color: #001080;&quot;&gt;type&lt;/span&gt;&lt;span style=&quot;color: #001080;&quot;&gt;:&lt;/span&gt;&lt;span style=&quot;color: #000000;&quot;&gt; &lt;/span&gt;&lt;span style=&quot;color: #a31515;&quot;&gt;&quot;delete&quot;&lt;/span&gt;&lt;span style=&quot;color: #000000;&quot;&gt;, &lt;/span&gt;&lt;span style=&quot;color: #001080;&quot;&gt;category&lt;/span&gt;&lt;span style=&quot;color: #001080;&quot;&gt;:&lt;/span&gt;&lt;span style=&quot;color: #000000;&quot;&gt; &lt;/span&gt;&lt;span style=&quot;color: #001080;&quot;&gt;category&lt;/span&gt;&lt;span style=&quot;color: #000000;&quot;&gt; })&lt;/span&gt;&lt;span style=&quot;color: #0000ff;&quot;&gt;}&lt;/span&gt;&lt;/div&gt;&lt;div&gt;&lt;span style=&quot;color: #000000;&quot;&gt;&amp;nbsp; &amp;nbsp; &amp;nbsp; &amp;nbsp; &amp;nbsp; &amp;nbsp; &amp;nbsp; &amp;nbsp; &lt;/span&gt;&lt;span style=&quot;color: #e50000;&quot;&gt;title&lt;/span&gt;&lt;span style=&quot;color: #000000;&quot;&gt;=&lt;/span&gt;&lt;span style=&quot;color: #a31515;&quot;&gt;&quot;Delete&quot;&lt;/span&gt;&lt;/div&gt;&lt;div&gt;&lt;span style=&quot;color: #000000;&quot;&gt;&amp;nbsp; &amp;nbsp; &amp;nbsp; &amp;nbsp; &amp;nbsp; &amp;nbsp; &amp;nbsp; &lt;/span&gt;&lt;span style=&quot;color: #800000;&quot;&gt;&amp;gt;&lt;/span&gt;&lt;/div&gt;&lt;div&gt;&lt;span style=&quot;color: #000000;&quot;&gt;&amp;nbsp; &amp;nbsp; &amp;nbsp; &amp;nbsp; &amp;nbsp; &amp;nbsp; &amp;nbsp; &amp;nbsp; 🗑️&lt;/span&gt;&lt;/div&gt;&lt;div&gt;&lt;span style=&quot;color: #000000;&quot;&gt;&amp;nbsp; &amp;nbsp; &amp;nbsp; &amp;nbsp; &amp;nbsp; &amp;nbsp; &amp;nbsp; &lt;/span&gt;&lt;span style=&quot;color: #800000;&quot;&gt;&amp;lt;/&lt;/span&gt;&lt;span style=&quot;color: #800000;&quot;&gt;span&lt;/span&gt;&lt;span style=&quot;color: #800000;&quot;&gt;&amp;gt;&lt;/span&gt;&lt;/div&gt;&lt;div&gt;&lt;span style=&quot;color: #000000;&quot;&gt;&amp;nbsp; &amp;nbsp; &amp;nbsp; &amp;nbsp; &amp;nbsp; &amp;nbsp; &lt;/span&gt;&lt;span style=&quot;color: #800000;&quot;&gt;&amp;lt;/&lt;/span&gt;&lt;span style=&quot;color: #800000;&quot;&gt;div&lt;/span&gt;&lt;span style=&quot;color: #800000;&quot;&gt;&amp;gt;&lt;/span&gt;&lt;/div&gt;&lt;div&gt;&lt;span style=&quot;color: #000000;&quot;&gt;&amp;nbsp; &amp;nbsp; &amp;nbsp; &amp;nbsp; &amp;nbsp; &amp;nbsp; &lt;/span&gt;&lt;span style=&quot;color: #800000;&quot;&gt;&amp;lt;&lt;/span&gt;&lt;span style=&quot;color: #800000;&quot;&gt;p&lt;/span&gt;&lt;span style=&quot;color: #800000;&quot;&gt;&amp;gt;&lt;/span&gt;&lt;span style=&quot;color: #0000ff;&quot;&gt;{&lt;/span&gt;&lt;span style=&quot;color: #001080;&quot;&gt;category&lt;/span&gt;&lt;span style=&quot;color: #000000;&quot;&gt;.&lt;/span&gt;&lt;span style=&quot;color: #001080;&quot;&gt;description&lt;/span&gt;&lt;span style=&quot;color: #0000ff;&quot;&gt;}&lt;/span&gt;&lt;span style=&quot;color: #800000;&quot;&gt;&amp;lt;/&lt;/span&gt;&lt;span style=&quot;color: #800000;&quot;&gt;p&lt;/span&gt;&lt;span style=&quot;color: #800000;&quot;&gt;&amp;gt;&lt;/span&gt;&lt;/div&gt;&lt;div&gt;&lt;span style=&quot;color: #000000;&quot;&gt;&amp;nbsp; &amp;nbsp; &amp;nbsp; &amp;nbsp; &amp;nbsp; &lt;/span&gt;&lt;span style=&quot;color: #800000;&quot;&gt;&amp;lt;/&lt;/span&gt;&lt;span style=&quot;color: #800000;&quot;&gt;li&lt;/span&gt;&lt;span style=&quot;color: #800000;&quot;&gt;&amp;gt;&lt;/span&gt;&lt;/div&gt;&lt;div&gt;&lt;span style=&quot;color: #000000;&quot;&gt;&amp;nbsp; &amp;nbsp; &amp;nbsp; &amp;nbsp; ))&lt;/span&gt;&lt;span style=&quot;color: #0000ff;&quot;&gt;}&lt;/span&gt;&lt;/div&gt;&lt;div&gt;&lt;span style=&quot;color: #3b3b3b;&quot;&gt;&amp;nbsp; &amp;nbsp; &amp;nbsp; &lt;/span&gt;&lt;span style=&quot;color: #800000;&quot;&gt;&amp;lt;/&lt;/span&gt;&lt;span style=&quot;color: #800000;&quot;&gt;ul&lt;/span&gt;&lt;span style=&quot;color: #800000;&quot;&gt;&amp;gt;&lt;/span&gt;&lt;/div&gt;&lt;br&gt;&lt;div&gt;&lt;span style=&quot;color: #3b3b3b;&quot;&gt;&amp;nbsp; &amp;nbsp; &amp;nbsp; &lt;/span&gt;&lt;span style=&quot;color: #0000ff;&quot;&gt;{&lt;/span&gt;&lt;span style=&quot;color: #0070c1;&quot;&gt;selectedCategory&lt;/span&gt;&lt;span style=&quot;color: #000000;&quot;&gt;.&lt;/span&gt;&lt;span style=&quot;color: #001080;&quot;&gt;actionType&lt;/span&gt;&lt;span style=&quot;color: #000000;&quot;&gt; == &lt;/span&gt;&lt;span style=&quot;color: #a31515;&quot;&gt;&quot;edit&quot;&lt;/span&gt;&lt;span style=&quot;color: #000000;&quot;&gt; &amp;amp;&amp;amp; (&lt;/span&gt;&lt;/div&gt;&lt;div&gt;&lt;span style=&quot;color: #000000;&quot;&gt;&amp;nbsp; &amp;nbsp; &amp;nbsp; &amp;nbsp; &lt;/span&gt;&lt;span style=&quot;color: #800000;&quot;&gt;&amp;lt;&lt;/span&gt;&lt;span style=&quot;color: #267f99;&quot;&gt;ModalDialog&lt;/span&gt;&lt;span style=&quot;color: #000000;&quot;&gt; &lt;/span&gt;&lt;span style=&quot;color: #e50000;&quot;&gt;title&lt;/span&gt;&lt;span style=&quot;color: #000000;&quot;&gt;=&lt;/span&gt;&lt;span style=&quot;color: #0000ff;&quot;&gt;{&lt;/span&gt;&lt;span style=&quot;color: #a31515;&quot;&gt;`Edit &lt;/span&gt;&lt;span style=&quot;color: #0000ff;&quot;&gt;${&lt;/span&gt;&lt;span style=&quot;color: #0070c1;&quot;&gt;selectedCategory&lt;/span&gt;&lt;span style=&quot;color: #000000;&quot;&gt;.&lt;/span&gt;&lt;span style=&quot;color: #001080;&quot;&gt;category&lt;/span&gt;&lt;span style=&quot;color: #000000;&quot;&gt;.&lt;/span&gt;&lt;span style=&quot;color: #001080;&quot;&gt;name&lt;/span&gt;&lt;span style=&quot;color: #0000ff;&quot;&gt;}&lt;/span&gt;&lt;span style=&quot;color: #a31515;&quot;&gt;`&lt;/span&gt;&lt;span style=&quot;color: #0000ff;&quot;&gt;}&lt;/span&gt;&lt;/div&gt;&lt;div&gt;&lt;span style=&quot;color: #000000;&quot;&gt;&amp;nbsp; &amp;nbsp; &amp;nbsp; &amp;nbsp; &amp;nbsp; &lt;/span&gt;&lt;span style=&quot;color: #e50000;&quot;&gt;onOk&lt;/span&gt;&lt;span style=&quot;color: #000000;&quot;&gt;=&lt;/span&gt;&lt;span style=&quot;color: #0000ff;&quot;&gt;{&lt;/span&gt;&lt;span style=&quot;color: #000000;&quot;&gt;() &lt;/span&gt;&lt;span style=&quot;color: #0000ff;&quot;&gt;=&amp;gt;&lt;/span&gt;&lt;span style=&quot;color: #000000;&quot;&gt; &lt;/span&gt;&lt;span style=&quot;color: #0070c1;&quot;&gt;categoryEditRef&lt;/span&gt;&lt;span style=&quot;color: #000000;&quot;&gt;.&lt;/span&gt;&lt;span style=&quot;color: #001080;&quot;&gt;current&lt;/span&gt;&lt;span style=&quot;color: #000000;&quot;&gt;?.&lt;/span&gt;&lt;span style=&quot;color: #795e26;&quot;&gt;startSubmit&lt;/span&gt;&lt;span style=&quot;color: #000000;&quot;&gt;()&lt;/span&gt;&lt;span style=&quot;color: #0000ff;&quot;&gt;}&lt;/span&gt;&lt;/div&gt;&lt;div&gt;&lt;span style=&quot;color: #000000;&quot;&gt;&amp;nbsp; &amp;nbsp; &amp;nbsp; &amp;nbsp; &amp;nbsp; &lt;/span&gt;&lt;span style=&quot;color: #e50000;&quot;&gt;onCancel&lt;/span&gt;&lt;span style=&quot;color: #000000;&quot;&gt;=&lt;/span&gt;&lt;span style=&quot;color: #0000ff;&quot;&gt;{&lt;/span&gt;&lt;span style=&quot;color: #000000;&quot;&gt;() &lt;/span&gt;&lt;span style=&quot;color: #0000ff;&quot;&gt;=&amp;gt;&lt;/span&gt;&lt;span style=&quot;color: #000000;&quot;&gt; &lt;/span&gt;&lt;span style=&quot;color: #795e26;&quot;&gt;selectedCategoryDispatch&lt;/span&gt;&lt;span style=&quot;color: #000000;&quot;&gt;({ &lt;/span&gt;&lt;span style=&quot;color: #001080;&quot;&gt;type&lt;/span&gt;&lt;span style=&quot;color: #001080;&quot;&gt;:&lt;/span&gt;&lt;span style=&quot;color: #000000;&quot;&gt; &lt;/span&gt;&lt;span style=&quot;color: #0000ff;&quot;&gt;null&lt;/span&gt;&lt;span style=&quot;color: #000000;&quot;&gt;, &lt;/span&gt;&lt;span style=&quot;color: #001080;&quot;&gt;category&lt;/span&gt;&lt;span style=&quot;color: #001080;&quot;&gt;:&lt;/span&gt;&lt;span style=&quot;color: #000000;&quot;&gt; &lt;/span&gt;&lt;span style=&quot;color: #0000ff;&quot;&gt;null&lt;/span&gt;&lt;span style=&quot;color: #000000;&quot;&gt; })&lt;/span&gt;&lt;span style=&quot;color: #0000ff;&quot;&gt;}&lt;/span&gt;&lt;span style=&quot;color: #800000;&quot;&gt;&amp;gt;&lt;/span&gt;&lt;/div&gt;&lt;div&gt;&lt;span style=&quot;color: #000000;&quot;&gt;&amp;nbsp; &amp;nbsp; &amp;nbsp; &amp;nbsp; &amp;nbsp; &lt;/span&gt;&lt;span style=&quot;color: #800000;&quot;&gt;&amp;lt;&lt;/span&gt;&lt;span style=&quot;color: #267f99;&quot;&gt;CategoryEdit&lt;/span&gt;&lt;span style=&quot;color: #000000;&quot;&gt; &lt;/span&gt;&lt;span style=&quot;color: #e50000;&quot;&gt;category&lt;/span&gt;&lt;span style=&quot;color: #000000;&quot;&gt;=&lt;/span&gt;&lt;span style=&quot;color: #0000ff;&quot;&gt;{&lt;/span&gt;&lt;span style=&quot;color: #0070c1;&quot;&gt;selectedCategory&lt;/span&gt;&lt;span style=&quot;color: #000000;&quot;&gt;.&lt;/span&gt;&lt;span style=&quot;color: #001080;&quot;&gt;category&lt;/span&gt;&lt;span style=&quot;color: #0000ff;&quot;&gt;}&lt;/span&gt;&lt;/div&gt;&lt;div&gt;&lt;span style=&quot;color: #000000;&quot;&gt;&amp;nbsp; &amp;nbsp; &amp;nbsp; &amp;nbsp; &amp;nbsp; &amp;nbsp; &lt;/span&gt;&lt;span style=&quot;color: #e50000;&quot;&gt;ref&lt;/span&gt;&lt;span style=&quot;color: #000000;&quot;&gt;=&lt;/span&gt;&lt;span style=&quot;color: #0000ff;&quot;&gt;{&lt;/span&gt;&lt;span style=&quot;color: #0070c1;&quot;&gt;categoryEditRef&lt;/span&gt;&lt;span style=&quot;color: #0000ff;&quot;&gt;}&lt;/span&gt;&lt;/div&gt;&lt;div&gt;&lt;span style=&quot;color: #000000;&quot;&gt;&amp;nbsp; &amp;nbsp; &amp;nbsp; &amp;nbsp; &amp;nbsp; &amp;nbsp; &lt;/span&gt;&lt;span style=&quot;color: #e50000;&quot;&gt;onSubmitted&lt;/span&gt;&lt;span style=&quot;color: #000000;&quot;&gt;=&lt;/span&gt;&lt;span style=&quot;color: #0000ff;&quot;&gt;{&lt;/span&gt;&lt;span style=&quot;color: #000000;&quot;&gt;() &lt;/span&gt;&lt;span style=&quot;color: #0000ff;&quot;&gt;=&amp;gt;&lt;/span&gt;&lt;span style=&quot;color: #000000;&quot;&gt; &lt;/span&gt;&lt;span style=&quot;color: #795e26;&quot;&gt;selectedCategoryDispatch&lt;/span&gt;&lt;span style=&quot;color: #000000;&quot;&gt;({ &lt;/span&gt;&lt;span style=&quot;color: #001080;&quot;&gt;type&lt;/span&gt;&lt;span style=&quot;color: #001080;&quot;&gt;:&lt;/span&gt;&lt;span style=&quot;color: #000000;&quot;&gt; &lt;/span&gt;&lt;span style=&quot;color: #0000ff;&quot;&gt;null&lt;/span&gt;&lt;span style=&quot;color: #000000;&quot;&gt;, &lt;/span&gt;&lt;span style=&quot;color: #001080;&quot;&gt;category&lt;/span&gt;&lt;span style=&quot;color: #001080;&quot;&gt;:&lt;/span&gt;&lt;span style=&quot;color: #000000;&quot;&gt; &lt;/span&gt;&lt;span style=&quot;color: #0000ff;&quot;&gt;null&lt;/span&gt;&lt;span style=&quot;color: #000000;&quot;&gt; })&lt;/span&gt;&lt;span style=&quot;color: #0000ff;&quot;&gt;}&lt;/span&gt;&lt;span style=&quot;color: #000000;&quot;&gt; &lt;/span&gt;&lt;span style=&quot;color: #800000;&quot;&gt;/&amp;gt;&lt;/span&gt;&lt;/div&gt;&lt;div&gt;&lt;span style=&quot;color: #000000;&quot;&gt;&amp;nbsp; &amp;nbsp; &amp;nbsp; &amp;nbsp; &lt;/span&gt;&lt;span style=&quot;color: #800000;&quot;&gt;&amp;lt;/&lt;/span&gt;&lt;span style=&quot;color: #267f99;&quot;&gt;ModalDialog&lt;/span&gt;&lt;span style=&quot;color: #800000;&quot;&gt;&amp;gt;&lt;/span&gt;&lt;/div&gt;&lt;div&gt;&lt;span style=&quot;color: #000000;&quot;&gt;&amp;nbsp; &amp;nbsp; &amp;nbsp; )&lt;/span&gt;&lt;span style=&quot;color: #0000ff;&quot;&gt;}&lt;/span&gt;&lt;/div&gt;&lt;div&gt;&lt;span style=&quot;color: #3b3b3b;&quot;&gt;&amp;nbsp; &amp;nbsp; &amp;nbsp; &lt;/span&gt;&lt;span style=&quot;color: #0000ff;&quot;&gt;{&lt;/span&gt;&lt;span style=&quot;color: #0070c1;&quot;&gt;selectedCategory&lt;/span&gt;&lt;span style=&quot;color: #000000;&quot;&gt;.&lt;/span&gt;&lt;span style=&quot;color: #001080;&quot;&gt;actionType&lt;/span&gt;&lt;span style=&quot;color: #000000;&quot;&gt; == &lt;/span&gt;&lt;span style=&quot;color: #a31515;&quot;&gt;&quot;delete&quot;&lt;/span&gt;&lt;span style=&quot;color: #000000;&quot;&gt; &amp;amp;&amp;amp; (&lt;/span&gt;&lt;/div&gt;&lt;div&gt;&lt;span style=&quot;color: #000000;&quot;&gt;&amp;nbsp; &amp;nbsp; &amp;nbsp; &amp;nbsp; &lt;/span&gt;&lt;span style=&quot;color: #800000;&quot;&gt;&amp;lt;&lt;/span&gt;&lt;span style=&quot;color: #267f99;&quot;&gt;CategoryDelete&lt;/span&gt;&lt;span style=&quot;color: #000000;&quot;&gt; &lt;/span&gt;&lt;span style=&quot;color: #e50000;&quot;&gt;category&lt;/span&gt;&lt;span style=&quot;color: #000000;&quot;&gt;=&lt;/span&gt;&lt;span style=&quot;color: #0000ff;&quot;&gt;{&lt;/span&gt;&lt;span style=&quot;color: #0070c1;&quot;&gt;selectedCategory&lt;/span&gt;&lt;span style=&quot;color: #000000;&quot;&gt;.&lt;/span&gt;&lt;span style=&quot;color: #001080;&quot;&gt;category&lt;/span&gt;&lt;span style=&quot;color: #0000ff;&quot;&gt;}&lt;/span&gt;&lt;/div&gt;&lt;div&gt;&lt;span style=&quot;color: #000000;&quot;&gt;&amp;nbsp; &amp;nbsp; &amp;nbsp; &amp;nbsp; &amp;nbsp; &lt;/span&gt;&lt;span style=&quot;color: #e50000;&quot;&gt;onCancel&lt;/span&gt;&lt;span style=&quot;color: #000000;&quot;&gt;=&lt;/span&gt;&lt;span style=&quot;color: #0000ff;&quot;&gt;{&lt;/span&gt;&lt;span style=&quot;color: #000000;&quot;&gt;() &lt;/span&gt;&lt;span style=&quot;color: #0000ff;&quot;&gt;=&amp;gt;&lt;/span&gt;&lt;span style=&quot;color: #000000;&quot;&gt; &lt;/span&gt;&lt;span style=&quot;color: #795e26;&quot;&gt;selectedCategoryDispatch&lt;/span&gt;&lt;span style=&quot;color: #000000;&quot;&gt;({ &lt;/span&gt;&lt;span style=&quot;color: #001080;&quot;&gt;type&lt;/span&gt;&lt;span style=&quot;color: #001080;&quot;&gt;:&lt;/span&gt;&lt;span style=&quot;color: #000000;&quot;&gt; &lt;/span&gt;&lt;span style=&quot;color: #0000ff;&quot;&gt;null&lt;/span&gt;&lt;span style=&quot;color: #000000;&quot;&gt;, &lt;/span&gt;&lt;span style=&quot;color: #001080;&quot;&gt;category&lt;/span&gt;&lt;span style=&quot;color: #001080;&quot;&gt;:&lt;/span&gt;&lt;span style=&quot;color: #000000;&quot;&gt; &lt;/span&gt;&lt;span style=&quot;color: #0000ff;&quot;&gt;null&lt;/span&gt;&lt;span style=&quot;color: #000000;&quot;&gt; })&lt;/span&gt;&lt;span style=&quot;color: #0000ff;&quot;&gt;}&lt;/span&gt;&lt;/div&gt;&lt;div&gt;&lt;span style=&quot;color: #000000;&quot;&gt;&amp;nbsp; &amp;nbsp; &amp;nbsp; &amp;nbsp; &amp;nbsp; &lt;/span&gt;&lt;span style=&quot;color: #e50000;&quot;&gt;onDeleted&lt;/span&gt;&lt;span style=&quot;color: #000000;&quot;&gt;=&lt;/span&gt;&lt;span style=&quot;color: #0000ff;&quot;&gt;{&lt;/span&gt;&lt;span style=&quot;color: #000000;&quot;&gt;() &lt;/span&gt;&lt;span style=&quot;color: #0000ff;&quot;&gt;=&amp;gt;&lt;/span&gt;&lt;span style=&quot;color: #000000;&quot;&gt; &lt;/span&gt;&lt;span style=&quot;color: #795e26;&quot;&gt;selectedCategoryDispatch&lt;/span&gt;&lt;span style=&quot;color: #000000;&quot;&gt;({ &lt;/span&gt;&lt;span style=&quot;color: #001080;&quot;&gt;type&lt;/span&gt;&lt;span style=&quot;color: #001080;&quot;&gt;:&lt;/span&gt;&lt;span style=&quot;color: #000000;&quot;&gt; &lt;/span&gt;&lt;span style=&quot;color: #0000ff;&quot;&gt;null&lt;/span&gt;&lt;span style=&quot;color: #000000;&quot;&gt;, &lt;/span&gt;&lt;span style=&quot;color: #001080;&quot;&gt;category&lt;/span&gt;&lt;span style=&quot;color: #001080;&quot;&gt;:&lt;/span&gt;&lt;span style=&quot;color: #000000;&quot;&gt; &lt;/span&gt;&lt;span style=&quot;color: #0000ff;&quot;&gt;null&lt;/span&gt;&lt;span style=&quot;color: #000000;&quot;&gt; })&lt;/span&gt;&lt;span style=&quot;color: #0000ff;&quot;&gt;}&lt;/span&gt;&lt;span style=&quot;color: #000000;&quot;&gt; &lt;/span&gt;&lt;span style=&quot;color: #800000;&quot;&gt;/&amp;gt;&lt;/span&gt;&lt;/div&gt;&lt;div&gt;&lt;span style=&quot;color: #000000;&quot;&gt;&amp;nbsp; &amp;nbsp; &amp;nbsp; )&lt;/span&gt;&lt;span style=&quot;color: #0000ff;&quot;&gt;}&lt;/span&gt;&lt;/div&gt;&lt;div&gt;&lt;span style=&quot;color: #3b3b3b;&quot;&gt;&amp;nbsp; &amp;nbsp; &lt;/span&gt;&lt;span style=&quot;color: #800000;&quot;&gt;&amp;lt;/&lt;/span&gt;&lt;span style=&quot;color: #800000;&quot;&gt;div&lt;/span&gt;&lt;span style=&quot;color: #800000;&quot;&gt;&amp;gt;&lt;/span&gt;&lt;/div&gt;&lt;div&gt;&lt;span style=&quot;color: #3b3b3b;&quot;&gt;&amp;nbsp; );&lt;/span&gt;&lt;/div&gt;&lt;div&gt;&lt;span style=&quot;color: #3b3b3b;&quot;&gt;}&lt;/span&gt;&lt;/div&gt;&lt;br&gt;&lt;/div&gt;" id="3OJfdOMYDYFNqFB5gJ05-3">
          <mxCell style="text;whiteSpace=wrap;html=1;movable=0;resizable=0;rotatable=0;deletable=0;editable=0;locked=1;connectable=0;strokeColor=#999999;strokeWidth=3;" vertex="1" parent="1">
            <mxGeometry x="70" y="960" width="1210" height="750" as="geometry" />
          </mxCell>
        </UserObject>
        <mxCell id="3OJfdOMYDYFNqFB5gJ05-6" style="edgeStyle=orthogonalEdgeStyle;rounded=0;orthogonalLoop=1;jettySize=auto;html=1;entryX=0.5;entryY=0;entryDx=0;entryDy=0;curved=1;" edge="1" parent="1" source="3OJfdOMYDYFNqFB5gJ05-4" target="3OJfdOMYDYFNqFB5gJ05-5">
          <mxGeometry relative="1" as="geometry">
            <Array as="points">
              <mxPoint x="765" y="1220" />
              <mxPoint x="690" y="1220" />
              <mxPoint x="690" y="970" />
              <mxPoint x="245" y="970" />
            </Array>
          </mxGeometry>
        </mxCell>
        <mxCell id="3OJfdOMYDYFNqFB5gJ05-4" value="" style="ellipse;whiteSpace=wrap;html=1;aspect=fixed;fillColor=#dae8fc;strokeColor=#6c8ebf;" vertex="1" parent="1">
          <mxGeometry x="760" y="1308" width="10" height="10" as="geometry" />
        </mxCell>
        <mxCell id="3OJfdOMYDYFNqFB5gJ05-5" value="" style="ellipse;whiteSpace=wrap;html=1;aspect=fixed;fillColor=#dae8fc;strokeColor=#6c8ebf;" vertex="1" parent="1">
          <mxGeometry x="240" y="1000" width="10" height="10" as="geometry" />
        </mxCell>
        <mxCell id="3OJfdOMYDYFNqFB5gJ05-7" value="" style="shape=curlyBracket;whiteSpace=wrap;html=1;rounded=1;flipH=1;labelPosition=right;verticalLabelPosition=middle;align=left;verticalAlign=middle;rotation=-90;" vertex="1" parent="1">
          <mxGeometry x="1062.5" y="1130" width="20" height="335" as="geometry" />
        </mxCell>
        <mxCell id="3OJfdOMYDYFNqFB5gJ05-8" value="Initial State" style="text;html=1;align=center;verticalAlign=middle;whiteSpace=wrap;rounded=0;fontFamily=Cascadia Code;fontStyle=1;fontSize=17;fontSource=https%3A%2F%2Ffonts.googleapis.com%2Fcss%3Ffamily%3DCascadia%2BCode;" vertex="1" parent="1">
          <mxGeometry x="937.5" y="1260" width="220" height="20" as="geometry" />
        </mxCell>
        <mxCell id="3OJfdOMYDYFNqFB5gJ05-13" style="edgeStyle=orthogonalEdgeStyle;rounded=0;orthogonalLoop=1;jettySize=auto;html=1;entryX=0;entryY=0.5;entryDx=0;entryDy=0;curved=1;" edge="1" parent="1" source="3OJfdOMYDYFNqFB5gJ05-11" target="3OJfdOMYDYFNqFB5gJ05-12">
          <mxGeometry relative="1" as="geometry" />
        </mxCell>
        <mxCell id="3OJfdOMYDYFNqFB5gJ05-11" value="&lt;font data-font-src=&quot;https://fonts.googleapis.com/css?family=Cascadia+Code&quot; face=&quot;Cascadia Code&quot; style=&quot;font-size: 20px;&quot;&gt;Old state (from react)&lt;/font&gt;" style="text;html=1;align=center;verticalAlign=middle;whiteSpace=wrap;rounded=0;fillColor=#dae8fc;strokeColor=#6c8ebf;movable=1;resizable=1;rotatable=1;deletable=1;editable=1;locked=0;connectable=1;" vertex="1" parent="1">
          <mxGeometry x="-290" y="1000" width="290" height="30" as="geometry" />
        </mxCell>
        <mxCell id="3OJfdOMYDYFNqFB5gJ05-12" value="" style="ellipse;whiteSpace=wrap;html=1;aspect=fixed;fillColor=#dae8fc;strokeColor=#6c8ebf;" vertex="1" parent="1">
          <mxGeometry x="80" y="1035" width="10" height="10" as="geometry" />
        </mxCell>
        <mxCell id="3OJfdOMYDYFNqFB5gJ05-14" value="" style="ellipse;whiteSpace=wrap;html=1;aspect=fixed;fillColor=#dae8fc;strokeColor=#6c8ebf;" vertex="1" parent="1">
          <mxGeometry x="80" y="1056" width="10" height="10" as="geometry" />
        </mxCell>
        <mxCell id="3OJfdOMYDYFNqFB5gJ05-16" style="edgeStyle=orthogonalEdgeStyle;rounded=0;orthogonalLoop=1;jettySize=auto;html=1;entryX=0;entryY=0.5;entryDx=0;entryDy=0;curved=1;" edge="1" parent="1" source="3OJfdOMYDYFNqFB5gJ05-15" target="3OJfdOMYDYFNqFB5gJ05-14">
          <mxGeometry relative="1" as="geometry" />
        </mxCell>
        <mxCell id="3OJfdOMYDYFNqFB5gJ05-15" value="&lt;font data-font-src=&quot;https://fonts.googleapis.com/css?family=Cascadia+Code&quot; face=&quot;Cascadia Code&quot; style=&quot;font-size: 20px;&quot;&gt;Action (from dispatch parameter)&lt;/font&gt;" style="text;html=1;align=center;verticalAlign=middle;whiteSpace=wrap;rounded=0;fillColor=#dae8fc;strokeColor=#6c8ebf;" vertex="1" parent="1">
          <mxGeometry x="-380" y="1070" width="380" height="30" as="geometry" />
        </mxCell>
        <mxCell id="3OJfdOMYDYFNqFB5gJ05-20" style="edgeStyle=orthogonalEdgeStyle;rounded=0;orthogonalLoop=1;jettySize=auto;html=1;entryX=0.5;entryY=1;entryDx=0;entryDy=0;exitX=0;exitY=0.5;exitDx=0;exitDy=0;elbow=vertical;curved=1;" edge="1" parent="1" source="3OJfdOMYDYFNqFB5gJ05-18" target="3OJfdOMYDYFNqFB5gJ05-14">
          <mxGeometry relative="1" as="geometry">
            <mxPoint x="550" y="1360" as="sourcePoint" />
          </mxGeometry>
        </mxCell>
        <mxCell id="3OJfdOMYDYFNqFB5gJ05-17" value="" style="shape=curlyBracket;whiteSpace=wrap;html=1;rounded=1;flipH=1;labelPosition=right;verticalLabelPosition=middle;align=left;verticalAlign=middle;rotation=-90;" vertex="1" parent="1">
          <mxGeometry x="718" y="1245" width="20" height="355" as="geometry" />
        </mxCell>
        <mxCell id="3OJfdOMYDYFNqFB5gJ05-18" value="" style="ellipse;whiteSpace=wrap;html=1;aspect=fixed;fillColor=#dae8fc;strokeColor=#6c8ebf;" vertex="1" parent="1">
          <mxGeometry x="723" y="1400" width="10" height="10" as="geometry" />
        </mxCell>
        <mxCell id="3OJfdOMYDYFNqFB5gJ05-23" style="edgeStyle=orthogonalEdgeStyle;rounded=0;orthogonalLoop=1;jettySize=auto;html=1;entryX=0.5;entryY=1;entryDx=0;entryDy=0;curved=1;exitX=0.5;exitY=0;exitDx=0;exitDy=0;" edge="1" parent="1" source="3OJfdOMYDYFNqFB5gJ05-21" target="3OJfdOMYDYFNqFB5gJ05-22">
          <mxGeometry relative="1" as="geometry" />
        </mxCell>
        <mxCell id="3OJfdOMYDYFNqFB5gJ05-21" value="" style="ellipse;whiteSpace=wrap;html=1;aspect=fixed;fillColor=#dae8fc;strokeColor=#6c8ebf;opacity=70;" vertex="1" parent="1">
          <mxGeometry x="440" y="1436" width="10" height="10" as="geometry" />
        </mxCell>
        <mxCell id="3OJfdOMYDYFNqFB5gJ05-22" value="" style="ellipse;whiteSpace=wrap;html=1;aspect=fixed;fillColor=#dae8fc;strokeColor=#6c8ebf;opacity=70;" vertex="1" parent="1">
          <mxGeometry x="466" y="1310" width="10" height="10" as="geometry" />
        </mxCell>
        <mxCell id="3OJfdOMYDYFNqFB5gJ05-24" value="&lt;div style=&quot;color: rgb(59, 59, 59); background-color: rgb(255, 255, 255); font-family: &amp;quot;Cascadia Code&amp;quot;, Consolas, &amp;quot;Courier New&amp;quot;, monospace; font-weight: normal; font-size: 14px; line-height: 19px; white-space: pre;&quot;&gt;&lt;div&gt;&lt;span style=&quot;background-color: light-dark(rgb(255, 255, 255), rgb(18, 18, 18)); color: rgb(0, 0, 255);&quot;&gt;type&lt;/span&gt;&lt;span style=&quot;background-color: light-dark(rgb(255, 255, 255), rgb(18, 18, 18)); color: rgb(59, 59, 59);&quot;&gt; &lt;/span&gt;&lt;span style=&quot;background-color: light-dark(rgb(255, 255, 255), rgb(18, 18, 18)); color: rgb(38, 127, 153);&quot;&gt;EditDeleteReducerAction&lt;/span&gt;&lt;span style=&quot;background-color: light-dark(rgb(255, 255, 255), rgb(18, 18, 18)); color: rgb(59, 59, 59);&quot;&gt; &lt;/span&gt;&lt;span style=&quot;background-color: light-dark(rgb(255, 255, 255), rgb(18, 18, 18)); color: rgb(0, 0, 0);&quot;&gt;=&lt;/span&gt;&lt;/div&gt;&lt;div&gt;&lt;span style=&quot;color: rgb(59, 59, 59);&quot;&gt;&amp;nbsp; &lt;/span&gt;&lt;span style=&quot;color: rgb(0, 0, 0);&quot;&gt;|&lt;/span&gt;&lt;span style=&quot;color: rgb(59, 59, 59);&quot;&gt; { &lt;/span&gt;&lt;span style=&quot;color: rgb(0, 16, 128);&quot;&gt;type&lt;/span&gt;&lt;span style=&quot;color: rgb(0, 0, 0);&quot;&gt;:&lt;/span&gt;&lt;span style=&quot;color: rgb(59, 59, 59);&quot;&gt; &lt;/span&gt;&lt;span style=&quot;color: rgb(38, 127, 153);&quot;&gt;null&lt;/span&gt;&lt;span style=&quot;color: rgb(59, 59, 59);&quot;&gt;; &lt;/span&gt;&lt;span style=&quot;color: rgb(0, 16, 128);&quot;&gt;category&lt;/span&gt;&lt;span style=&quot;color: rgb(0, 0, 0);&quot;&gt;:&lt;/span&gt;&lt;span style=&quot;color: rgb(59, 59, 59);&quot;&gt; &lt;/span&gt;&lt;span style=&quot;color: rgb(38, 127, 153);&quot;&gt;null&lt;/span&gt;&lt;span style=&quot;color: rgb(59, 59, 59);&quot;&gt; }&lt;/span&gt;&lt;/div&gt;&lt;div&gt;&lt;span style=&quot;color: rgb(59, 59, 59);&quot;&gt;&amp;nbsp; &lt;/span&gt;&lt;span style=&quot;color: rgb(0, 0, 0);&quot;&gt;|&lt;/span&gt;&lt;span style=&quot;color: rgb(59, 59, 59);&quot;&gt; { &lt;/span&gt;&lt;span style=&quot;color: rgb(0, 16, 128);&quot;&gt;type&lt;/span&gt;&lt;span style=&quot;color: rgb(0, 0, 0);&quot;&gt;:&lt;/span&gt;&lt;span style=&quot;color: rgb(59, 59, 59);&quot;&gt; &lt;/span&gt;&lt;span style=&quot;color: rgb(163, 21, 21);&quot;&gt;&quot;edit&quot;&lt;/span&gt;&lt;span style=&quot;color: rgb(59, 59, 59);&quot;&gt; &lt;/span&gt;&lt;span style=&quot;color: rgb(0, 0, 0);&quot;&gt;|&lt;/span&gt;&lt;span style=&quot;color: rgb(59, 59, 59);&quot;&gt; &lt;/span&gt;&lt;span style=&quot;color: rgb(163, 21, 21);&quot;&gt;&quot;delete&quot;&lt;/span&gt;&lt;span style=&quot;color: rgb(59, 59, 59);&quot;&gt;; &lt;/span&gt;&lt;span style=&quot;color: rgb(0, 16, 128);&quot;&gt;category&lt;/span&gt;&lt;span style=&quot;color: rgb(0, 0, 0);&quot;&gt;:&lt;/span&gt;&lt;span style=&quot;color: rgb(59, 59, 59);&quot;&gt; &lt;/span&gt;&lt;span style=&quot;color: rgb(38, 127, 153);&quot;&gt;Category&lt;/span&gt;&lt;span style=&quot;color: rgb(59, 59, 59);&quot;&gt; };&lt;/span&gt;&lt;/div&gt;&lt;div&gt;&lt;span style=&quot;color: rgb(0, 0, 255);&quot;&gt;type&lt;/span&gt;&lt;span style=&quot;color: rgb(59, 59, 59);&quot;&gt; &lt;/span&gt;&lt;span style=&quot;color: rgb(38, 127, 153);&quot;&gt;EditDeleteState&lt;/span&gt;&lt;span style=&quot;color: rgb(59, 59, 59);&quot;&gt; &lt;/span&gt;&lt;span style=&quot;color: rgb(0, 0, 0);&quot;&gt;=&lt;/span&gt;&lt;/div&gt;&lt;div&gt;&lt;span style=&quot;color: rgb(59, 59, 59);&quot;&gt;&amp;nbsp; &lt;/span&gt;&lt;span style=&quot;color: rgb(0, 0, 0);&quot;&gt;|&lt;/span&gt;&lt;span style=&quot;color: rgb(59, 59, 59);&quot;&gt; { &lt;/span&gt;&lt;span style=&quot;color: rgb(0, 16, 128);&quot;&gt;actionType&lt;/span&gt;&lt;span style=&quot;color: rgb(0, 0, 0);&quot;&gt;:&lt;/span&gt;&lt;span style=&quot;color: rgb(59, 59, 59);&quot;&gt; &lt;/span&gt;&lt;span style=&quot;color: rgb(38, 127, 153);&quot;&gt;null&lt;/span&gt;&lt;span style=&quot;color: rgb(59, 59, 59);&quot;&gt;; &lt;/span&gt;&lt;span style=&quot;color: rgb(0, 16, 128);&quot;&gt;category&lt;/span&gt;&lt;span style=&quot;color: rgb(0, 0, 0);&quot;&gt;:&lt;/span&gt;&lt;span style=&quot;color: rgb(59, 59, 59);&quot;&gt; &lt;/span&gt;&lt;span style=&quot;color: rgb(38, 127, 153);&quot;&gt;null&lt;/span&gt;&lt;span style=&quot;color: rgb(59, 59, 59);&quot;&gt; }&lt;/span&gt;&lt;/div&gt;&lt;div&gt;&lt;span style=&quot;color: rgb(59, 59, 59);&quot;&gt;&amp;nbsp; &lt;/span&gt;&lt;span style=&quot;color: rgb(0, 0, 0);&quot;&gt;|&lt;/span&gt;&lt;span style=&quot;color: rgb(59, 59, 59);&quot;&gt; { &lt;/span&gt;&lt;span style=&quot;color: rgb(0, 16, 128);&quot;&gt;actionType&lt;/span&gt;&lt;span style=&quot;color: rgb(0, 0, 0);&quot;&gt;:&lt;/span&gt;&lt;span style=&quot;color: rgb(59, 59, 59);&quot;&gt; &lt;/span&gt;&lt;span style=&quot;color: rgb(163, 21, 21);&quot;&gt;&quot;edit&quot;&lt;/span&gt;&lt;span style=&quot;color: rgb(59, 59, 59);&quot;&gt; &lt;/span&gt;&lt;span style=&quot;color: rgb(0, 0, 0);&quot;&gt;|&lt;/span&gt;&lt;span style=&quot;color: rgb(59, 59, 59);&quot;&gt; &lt;/span&gt;&lt;span style=&quot;color: rgb(163, 21, 21);&quot;&gt;&quot;delete&quot;&lt;/span&gt;&lt;span style=&quot;color: rgb(59, 59, 59);&quot;&gt;; &lt;/span&gt;&lt;span style=&quot;color: rgb(0, 16, 128);&quot;&gt;category&lt;/span&gt;&lt;span style=&quot;color: rgb(0, 0, 0);&quot;&gt;:&lt;/span&gt;&lt;span style=&quot;color: rgb(59, 59, 59);&quot;&gt; &lt;/span&gt;&lt;span style=&quot;color: rgb(38, 127, 153);&quot;&gt;Category&lt;/span&gt;&lt;span style=&quot;color: rgb(59, 59, 59);&quot;&gt; };&lt;/span&gt;&lt;/div&gt;&lt;/div&gt;" style="text;whiteSpace=wrap;html=1;strokeWidth=2;strokeColor=light-dark(#b3b3b3, #ededed);" vertex="1" parent="1">
          <mxGeometry x="790" y="960" width="490" height="140" as="geometry" />
        </mxCell>
        <mxCell id="3OJfdOMYDYFNqFB5gJ05-25" value="&lt;div style=&quot;font-family: &amp;quot;Cascadia Code&amp;quot;, Consolas, &amp;quot;Courier New&amp;quot;, monospace; line-height: 19px; white-space: pre;&quot;&gt;&lt;span&gt;&lt;font style=&quot;color: rgb(0, 0, 0); font-size: 16px;&quot;&gt;Discriminated union&lt;/font&gt;&lt;/span&gt;&lt;/div&gt;" style="text;html=1;align=left;verticalAlign=middle;whiteSpace=wrap;rounded=0;" vertex="1" parent="1">
          <mxGeometry x="790" y="1100" width="490" height="30" as="geometry" />
        </mxCell>
      </root>
    </mxGraphModel>
  </diagram>
</mxfile>
